<?xml version="1.0" encoding="UTF-8" standalone="no"?>
<!-- Created with Inkscape (http://www.inkscape.org/) -->

<svg
   version="1.1"
   id="svg32"
   width="1383.637"
   height="1347.5453"
   viewBox="0 0 1383.637 1347.5453"
   sodipodi:docname="odenlabs.svg"
   inkscape:version="1.2.2 (b0a8486541, 2022-12-01)"
   xmlns:inkscape="http://www.inkscape.org/namespaces/inkscape"
   xmlns:sodipodi="http://sodipodi.sourceforge.net/DTD/sodipodi-0.dtd"
   xmlns="http://www.w3.org/2000/svg"
   xmlns:svg="http://www.w3.org/2000/svg">
  <defs
     id="defs36" />
  <sodipodi:namedview
     id="namedview34"
     pagecolor="#ffffff"
     bordercolor="#000000"
     borderopacity="0.25"
     inkscape:showpageshadow="2"
     inkscape:pageopacity="0.0"
     inkscape:pagecheckerboard="0"
     inkscape:deskcolor="#d1d1d1"
     showgrid="false"
     inkscape:zoom="0.42529297"
     inkscape:cx="-465.56142"
     inkscape:cy="672.47761"
     inkscape:window-width="1920"
     inkscape:window-height="1007"
     inkscape:window-x="0"
     inkscape:window-y="0"
     inkscape:window-maximized="1"
     inkscape:current-layer="g38" />
  <g
     inkscape:groupmode="layer"
     inkscape:label="Image"
     id="g38"
     transform="translate(-2836.6887,278.18448)">
    <rect
       style="fill:#ffffff;fill-opacity:1;stroke:#ffffff;stroke-width:1.03058;stroke-dasharray:none;stroke-opacity:1;paint-order:stroke markers fill"
       id="rect5436"
       width="1191.1587"
       height="1204.9425"
       x="2944.5237"
       y="-188.96135"
       rx="149.52301"
       ry="152.40498"
       inkscape:export-filename="rect5436.png"
       inkscape:export-xdpi="96"
       inkscape:export-ydpi="96" />
    <path
       style="fill:#000000"
       d="m 3127.8258,1068.7956 -140.5,-0.5653 -7.3323,-1.6504 -7.3322,-1.6503 -9.6678,-2.6085 -9.6677,-2.6085 -8.3364,-3.5527 -8.3364,-3.5526 -9.4009,-5.1232 -9.4008,-5.1232 -9.2439,-6.5 -9.2438,-6.5 -11.1097,-10.7302 -11.1097,-10.7303 -5.9092,-8.05023 -5.9092,-8.0502 -4.3991,-7.1916 -4.399,-7.1915 -4.7377,-11.0414 -4.7377,-11.0415 -2.0984,-6.7935 -2.0983,-6.7936 -1.943,-9.693 -1.943,-9.693 -1.1405,-12.5 -1.1405,-12.5 0.4013,-509.49995 0.4012,-509.49989 1.5514,-8.5 1.5513,-8.5 2.1286,-8.216 2.1285,-8.2159 3.0199,-8.1903 3.0199,-8.1904 4.4005,-9.0937 4.4006,-9.0937 7.3037,-10.9713 7.3037,-10.9712 9.5133,-9.9158 9.5133,-9.9158 10.1717,-8.1523 10.1718,-8.1524 10.8282,-6.1434 10.8283,-6.1433 8.5,-3.6504 8.5,-3.6504 12.4806,-3.4334 12.4806,-3.4333 11.0194,-1.5815 11.0194,-1.5815 477.4999,-0.4247 477.5,-0.4248 57.5,0.9321 57.5,0.9321 12.2413,2.5322 12.2413,2.5322 10.7587,3.6543 10.7587,3.6542 12.5809,6.4505 12.581,6.4506 10.4743,7.8645 10.4743,7.8645 10.4447,10.9122 10.4448,10.9123 6.764,9.4269 6.764,9.4269 6.9153,14 6.9154,14 3.0013,9.5456 3.0014,9.5455 2.3193,11.4545 2.3193,11.4544 v 520.49989 520.49995 l -1.354,7 -1.3539,7 -2.4493,9.8914 -2.4494,9.8915 -3.5801,9.1085 -3.5802,9.1086 -2.4794,5 -2.4794,5 -3.5581,6 -3.5581,6 -6.0099,8 -6.01,8.00003 -6.0691,6.8747 -6.0691,6.8747 -8.7381,7.3367 -8.738,7.3368 -7.5036,5.0634 -7.5036,5.0634 -10.2583,5.3997 -10.2584,5.3997 -10,3.4438 -10,3.4437 -9,2.0646 -9,2.0646 -9.5,1.0681 -9.5,1.0682 -395.5,0.249 -395.4999,0.2489 z m 43.465,-152.46763 5.8852,-1.5329 4.8125,-2.6193 4.8126,-2.6193 6.0358,-6.2857 6.0358,-6.2857 2.9523,-6.3121 2.9522,-6.3121 1.1666,-7.5125 1.1667,-7.5125 -1.5513,-7.6068 -1.5512,-7.6068 -2.6845,-5.6745 -2.6845,-5.6746 -5.3646,-5.7944 -5.3646,-5.7945 -5.8735,-3.1305 -5.8735,-3.1305 -5.8786,-1.5312 -5.8786,-1.5312 h -5.7407 -5.7407 l -5.2992,1.1159 -5.2992,1.116 -5.4656,2.634 -5.4656,2.6341 -6.2882,5.8682 -6.2882,5.8682 -3.6011,7.2864 -3.6012,7.2863 -1.0838,7.5234 -1.0839,7.5234 1.0948,7.0725 1.0947,7.0726 3.0656,6.5511 3.0657,6.5511 5.832,5.8321 5.8321,5.832 5.4463,2.7728 5.4464,2.7728 4.5,1.2541 4.5,1.2542 8.0399,0.089 8.0399,0.089 5.8852,-1.5329 z m -23.5828,-13.799 -3.6177,-1.3415 -3.615,-2.2342 -3.6151,-2.2342 -3.5574,-4.156 -3.5573,-4.156 -2.0834,-6.859 -2.0834,-6.8591 0.4478,-7.7353 0.4478,-7.7354 2.3733,-4.9026 2.3734,-4.9026 4.356,-4.3561 4.356,-4.356 4.6964,-2.1271 4.6964,-2.1272 8.5,-0.03 8.5,-0.03 5.2137,2.3443 5.2138,2.3443 4.6069,4.9252 4.607,4.9252 2.1198,4.7173 2.1197,4.7172 0.04,9 0.04,9 -2.8072,6.1174 -2.8071,6.1175 -4.1729,4.0486 -4.173,4.0486 -4.5,2.3334 -4.5,2.3334 -8,0.2554 -8,0.2553 -3.6177,-1.3415 z m 795.7154,11.8279 5.3508,-2.6179 3.5627,-4.1622 3.5627,-4.1622 1.5825,-5.4439 1.5826,-5.4438 -0.58,-4.8972 -0.58,-4.8972 -2.2895,-4.1391 -2.2895,-4.1391 -4.1455,-3.1577 -4.1455,-3.1577 -9.8545,-3.0656 -9.8545,-3.0655 -5.8115,-1.7297 -5.8115,-1.7297 -2.9385,-2.7449 -2.9385,-2.745 v -4.583 -4.583 l 2.75,-3.024 2.75,-3.024 5,-0.9105 5,-0.9105 5.4683,1.0097 5.4683,1.0098 4.0317,2.0395 4.0317,2.0396 2.8076,1.9785 2.8076,1.9785 0.2287,-0.3591 0.2288,-0.3591 3.759,-5.803 3.7591,-5.8029 -2.2954,-1.8879 -2.2954,-1.8879 -5,-2.5323 -5,-2.5324 -6.5,-1.6507 -6.5,-1.6506 -7.6222,0.5205 -7.6222,0.5206 -4.4286,1.9589 -4.4286,1.959 -3.7581,3.2997 -3.7581,3.2996 -2.1583,4.0947 -2.1582,4.0947 -0.033,7.5207 -0.033,7.5207 2.549,4.9793 2.549,4.9793 4.7508,3.1265 4.7508,3.1264 6.7002,2.0211 6.7002,2.0211 8.6663,2.6087 8.6664,2.6086 2.5836,3.0705 2.5837,3.0706 v 3.8465 3.8465 l -2.5327,3.01 -2.5328,3.01 -3.6303,1.1981 -3.6303,1.1981 -6.8774,-0.5765 -6.8774,-0.5766 -5.2552,-2.4059 -5.2552,-2.4059 -3.7557,-3.2976 -3.7557,-3.2975 -0.7778,0.8986 -0.7778,0.8987 -3.8164,4.7806 -3.8164,4.7806 2.26,2.4057 2.26,2.4056 6.9113,3.6318 6.9113,3.6318 6.2242,1.4194 6.2243,1.4194 8.8735,-0.4305 8.8735,-0.4305 5.3507,-2.6179 z m -666.774,1.4627 6.3237,-1.0261 6.1763,-2.4816 6.1764,-2.4815 4.7463,-3.7568 4.7463,-3.7567 3.9354,-5.2376 3.9354,-5.2375 2.2574,-5.7404 2.2575,-5.7405 0.037,-10.5 0.037,-10.5 -2.3256,-5.8242 -2.3255,-5.8243 -4.6504,-6.1052 -4.6504,-6.1052 -4.7608,-3.2527 -4.7608,-3.2528 -5.7392,-2.2982 -5.7392,-2.2982 -24.0913,-0.3327 -24.0914,-0.3326 -0.1195,45.7218 -0.1195,45.7219 0.5198,0.8412 0.5199,0.8412 17.691,-0.01 17.691,-0.01 6.3237,-1.0262 z m -27.3574,-13.8258 -0.4662,-0.4662 v -31.8334 -31.8333 h 13.3851 13.3852 l 5.3648,1.719 5.3649,1.7189 6.1689,6.0311 6.1689,6.031 1.7029,5.925 1.7029,5.9251 -0.4778,6.5749 -0.4778,6.575 -2.2021,5.0988 -2.2022,5.0988 -4.1919,4.0673 -4.1918,4.0672 -4.4171,2.272 -4.417,2.272 -8.583,0.331 -8.5829,0.331 -6.2838,0.2805 -6.2838,0.2805 z m 164.3275,7.1171 0.2938,-7.25 h -27.6862 -27.6863 l 0.6425,-6.1467 0.6425,-6.1467 v -6.3533 -6.3533 h 23.5 23.4999 v -6.9819 -6.9819 l -23.5657,-0.2681 -23.5658,-0.2681 -0.1842,-12.2502 -0.1842,-12.2502 26.75,2e-4 26.7499,2e-4 v -7 -7 h -34.4999 -34.5 v 45.8333 45.8334 l 0.6795,0.6795 0.6796,0.6796 34.0704,-0.2629 34.0704,-0.2629 z m 41.2062,-25.8715 0.5,-33.1215 19.5,24.5222 19.5,24.5223 6.8777,8.3492 6.8778,8.3493 h 5.8722 5.8723 v -46 -46 h -7.4861 -7.4862 l -0.2638,32.1624 -0.2639,32.1625 -6.1234,-7.9125 -6.1235,-7.9124 -18.6728,-23.5 -18.6728,-23.5 -2.2037,-1.2353 -2.2038,-1.2352 h -3.5 -3.5 l -2,0.5404 -2,0.5405 0.1073,45.6959 0.1072,45.6959 0.1428,0.7938 0.1427,0.7938 7.25,-0.2938 7.25,-0.2938 0.5,-33.1215 z m 210.8073,28.1757 0.3113,-4.9457 -0.6119,-2.438 -0.6119,-2.4379 -24.9474,0.7294 -24.9474,0.7293 v -39.4862 -39.4863 l -3.3926,-0.3961 -3.3927,-0.396 -4.1073,0.3917 -4.1074,0.3917 v 46.4086 46.4086 l 32.748,-0.2636 32.748,-0.2637 z m 31.1927,-6.3165 5.5,-11.2624 22.2771,0.2624 22.2771,0.2623 4.7229,11 4.7229,11 7.75,0.2921 7.75,0.292 v -0.9962 -0.9961 l -8.1395,-18.7959 -8.1395,-18.7959 -5.7362,-13 -5.7363,-13 -6.2907,-14.2905 -6.2907,-14.2904 -6.9609,0.2904 -6.9609,0.2905 -6.2307,14 -6.2306,14 -10.2658,23.5 -10.2659,23.5 -3.8761,8.3884 -3.8762,8.3884 v 0.9054 0.9054 l 7.25,-0.2938 7.25,-0.2938 z m 11,-25.7627 v -0.5249 l 3.3295,-6.7251 3.3296,-6.725 4.8195,-11.7676 4.8195,-11.7676 0.2643,0.2676 0.2643,0.2676 3.632,8.265 3.6319,8.265 4.3928,10.485 4.3928,10.485 h -16.4381 -16.4381 z m 138.5261,36.4355 5.8935,-1.0894 4.7282,-2.396 4.7282,-2.3959 2.5424,-3.3333 2.5424,-3.3332 1.6016,-4.4314 1.6016,-4.4313 -0.5679,-5.7623 -0.568,-5.7623 -2.0048,-3.9298 -2.0048,-3.9297 -3.3483,-2.5539 -3.3482,-2.5538 -3.2495,-1.1328 -3.2495,-1.1327 3.7798,-2.1214 3.7797,-2.1213 2.4754,-4.8114 2.4754,-4.8113 v -5.6887 -5.6886 l -1.2333,-3.7264 -1.2333,-3.7265 -4.5763,-4.0282 -4.5763,-4.0282 -5.0355,-1.4953 -5.0354,-1.4954 h -24.8185 -24.8185 v 45.8333 45.8334 l 0.6667,0.6666 0.6666,0.6667 h 23.1497 23.1497 l 5.8934,-1.0895 z m -38.1862,-16.5479 0.6381,-3.8626 0.011,-9.25 0.011,-9.25 h 16.375 16.375 l 3.1607,0.6321 3.1607,0.6322 2.8869,2.6967 2.8869,2.6968 0.6805,3.6276 0.6806,3.6276 -1.8532,3.7657 -1.8531,3.7656 -3.5,2.0218 -3.5,2.0218 -18.3991,0.3686 -18.3991,0.3687 z m 0.1601,-48.8626 v -12.5 h 15.2821 15.2821 l 3.3372,1.3944 3.3372,1.3943 1.6307,2.3282 1.6307,2.3281 v 4.7008 4.7007 l -2.5234,2.9989 -2.5234,2.9989 -5.0258,1.0779 -5.0258,1.0778 h -12.7008 -12.7008 z m -475.2184,-203.4987 14.7816,-0.9575 9.7184,-1.5538 9.7185,-1.5537 11.5,-2.9277 11.5,-2.9278 10,-3.4015 9.9999,-3.4014 9,-3.7329 9,-3.7329 11.9414,-6.083 11.9415,-6.0831 13.0585,-8.6534 13.0586,-8.6534 10.5,-8.3561 10.5,-8.3562 12.0306,-12.0634 12.0305,-12.0635 9.5655,-12 9.5655,-12 7.5332,-11.1977 7.5332,-11.19775 8.5823,-17.3022 8.5824,-17.3023 3.5018,-9.6087 3.5019,-9.6087 2.5495,-8.7981 2.5496,-8.798 1.9477,-9.5933 1.9477,-9.5932 1.6204,-11.5 1.6205,-11.5 0.5452,-23.2785 0.5453,-23.27859 -1.2129,-11.2214 -1.2128,-11.2214 -1.9369,-11.5 -1.9368,-11.5 -3.0152,-10.8721 -3.0151,-10.8721 -4.5413,-12.6279 -4.5414,-12.6279 -8.1562,-16.4331 -8.1562,-16.433 -7.5765,-11.567 -7.5764,-11.5669 -8.4019,-10.5 -8.4019,-10.5 -13.5357,-13.5276 -13.5356,-13.5275 -12,-9.0553 -12,-9.0553 -9,-5.9853 -9,-5.9853 -9,-4.8775 -9,-4.8776 -7.6759,-3.8086 -7.6758,-3.8087 -11.5074,-4.499499 -11.5074,-4.4995 -12.2351,-3.5216 -12.2351,-3.5216 -13.0816,-2.4049 -13.0816,-2.4049 -11.5,-1.0663 -11.5,-1.0662 h -15.2409 -15.2409 l -15.2591,1.5582 -15.2591,1.5582 -12.1147,2.4202 -12.1147,2.4201 -15.5535,5.036 -15.5536,5.036 -9.8318,4.077799 -9.8317,4.0778 -12.2782,6.4982 -12.2782,6.4982 -9.2218,6.0498 -9.2218,6.0498 -6,4.5614 -6,4.5615 -10.048,8.6929 -10.048,8.6929 -9.452,9.9484 -9.452,9.9485 -8.1315,10.407 -8.1314,10.4071 -8.3686,12.5 -8.3685,12.5 -7.7119,15.5 -7.7118,15.5 -5.0537,14.4657 -5.0538,14.4658 -2.9333,12.0342 -2.9334,12.0343 -1.5458,9 -1.5459,9 -1.1286,16 -1.1287,15.99999 0.613,15.9999 0.6129,16 1.4335,11.5 1.4335,11.5 2.5381,12.5 2.538,12.5 4.8907,14.5 4.8906,14.5 3.7236,9 3.7235,9 6.4875,12.4776 6.4875,12.4776 6.6755,10.02235 6.6756,10.0224 9.6329,12 9.6329,12 11.8788,11.5155 11.8788,11.5156 11.5,9.4047 11.5,9.4047 11,7.2411 11,7.2411 14.5,7.4968 14.5,7.4968 11.5,4.5011 11.5,4.5011 13.5,4.0668 13.5,4.0667 9.5,1.9439 9.5,1.9438 10,1.0875 10,1.0875 5.5,0.3077 5.5,0.3076 11,0.1644 11,0.1644 14.7815,-0.9575 z m -56.4907,-14.5148 -10.7092,-1.2966 -12.2908,-2.7595 -12.2908,-2.7596 -0.95,-0.8354 -0.95,-0.8354 h 19.7 19.7 v 1.0455 1.0454 l 2.4545,2.4546 2.4545,2.4545 h 3.091 3.0909 l 2.4545,-2.4545 2.4546,-2.4546 v -2.9106 -2.9106 l -1.9842,-2.5225 -1.9842,-2.5224 -2.5245,-0.6336 -2.5244,-0.6336 -3.0428,1.5735 -3.0428,1.5735 -0.5556,1.4477 -0.5555,1.4477 h -25.4806 -25.4807 l -17.7658,-16.8617 -17.7659,-16.8618 -3.1465,-2.3263 -3.1465,-2.3263 v -1.2352 -1.2352 l -2.5889,-3.0768 -2.5889,-3.0767 h -3.2368 -3.2368 l -2.1743,2.3145 -2.1743,2.3144 v 2.6038 2.6037 l 0.6211,1.6188 0.6212,1.6188 2.8292,1.463 2.8291,1.463 h 1.9389 1.9389 l 2.3415,-1.8961 2.3416,-1.896 16.7949,16.037 16.795,16.037 -0.3937,0.3937 -0.3936,0.3936 -11.7245,-4.9687 -11.7245,-4.9686 -15.5336,-8.6102 -15.5335,-8.6102 -9.624,-7.1231 -9.624,-7.1231 -6.5,-5.4509 -6.5,-5.451 -8.4146,-8.1317 -8.4145,-8.1317 -8.5963,-9.5553 -8.5964,-9.5553 -7.3097,-10.3577 -7.3097,-10.35775 -5.9359,-9.8829 -5.9358,-9.8829 -2.4599,-4.8544 -2.4599,-4.8544 4.006,0.5374 4.0061,0.5373 2.4603,-2.3113 2.4603,-2.3113 v -4.2033 -4.2032 l -1.3454,-1.1165 -1.3453,-1.1165 -3.1146,-0.6229 -3.1146,-0.623 -3.0401,3.0401 -3.04,3.0401 -0.075,2.8269 -0.075,2.8269 -3.004,-8.5 -3.0039,-8.5 -0.843,-2.7221 -0.8429,-2.722 2.3836,1.5618 2.3836,1.5618 3.8994,-0.3397 3.8994,-0.3398 51.8892,51.5 51.8891,51.49995 h 70.6165 70.6164 l 1.2362,6.2203 1.2362,6.2204 -3.6026,3.3977 -3.6027,3.3978 v 2.0668 2.0668 l 0.9799,2.5774 0.98,2.5774 2.4463,1.1146 2.4463,1.1146 2.5992,-0.6523 2.5992,-0.6524 1.9746,-1.9745 1.9746,-1.9746 v -3.9111 -3.9111 l -3,-2.5243 -3,-2.5244 v -2.5395 -2.5396 l 2.8179,0.5636 2.818,0.5636 3.182,-2.6775 3.1821,-2.6775 v -2.7561 -2.7561 l -1.7644,-1.5967 -1.7643,-1.5967 -4.4857,0.085 -4.4856,0.085 -72.2252,0.3757 -72.2251,0.3757 -47.9844,-48.29695 -47.9844,-48.2971 -3.9555,-2.9722 -3.9555,-2.9723 -1.0896,-3.6314 -1.0895,-3.6313 -1.4261,-1.1836 -1.4261,-1.1835 -3.0922,-0.088 -3.0922,-0.088 -2.4732,2.3235 -2.4732,2.3234 -0.3953,-0.4206 -0.3954,-0.4206 -2.504,-8 -2.504,-8 -2.0797,-10.5 -2.0798,-10.5 -1.5248,-12.6632 -1.5248,-12.6631 v -21.6815 -21.68139 l 30.3873,-30.6554 30.3874,-30.6553 0.7259,-29 0.7259,-29 0.026,-6.0417 0.026,-6.0416 2.2722,-1.0723 2.2723,-1.0724 1.3389,0.8487 1.3389,0.8486 2.095,0.015 2.095,0.015 1.6432,-1.8156 1.6431,-1.8156 0.6288,-3.1443 0.6289,-3.1443 -3.0401,-3.0401 -3.04,-3.0401 h -3.3858 -3.3858 l -1.7231,-1.26 -1.7232,-1.2599 8.3611,-9.4901 8.3611,-9.49 10.4209,-9.4109 10.4209,-9.411 9.65,-7.2115 9.65,-7.2115 8.35,-4.9902 8.35,-4.9902 6.5,-3.5739 6.5,-3.5739 11.4904,-5.1754 11.4904,-5.1755 11.4167,-3.8257 11.4167,-3.8258 1.5929,3.1878 1.5929,3.1877 3.7589,0.9286 3.759,0.9285 2.741,-2.5855 2.7411,-2.5855 39.1397,0.5539 39.1397,0.554 13.8152,14.8434 13.8152,14.8434 0.8448,1.5096 0.8448,1.5096 h 25.7965 25.7965 l 4.1296,-4.5376 4.1296,-4.5377 4.8667,0.6456 4.8667,0.6456 2.2305,-2.8357 2.2306,-2.8356 -0.4344,-2.2723 -0.4344,-2.2723 h 0.3946 0.3946 l 5.0357,2.5518 5.0358,2.5518 -2.569,2.0208 -2.569,2.0208 v 1.6955 1.6955 l -5.7847,6.2319 -5.7848,6.2319 h -37.5892 -37.5893 l -8.8748,-9.25 -8.8748,-9.25 -7.5694,-7.75 -7.5693,-7.75 -52.9319,0.056 -52.9318,0.056 -10.3693,11.4548 -10.3692,11.4548 -2.6308,0.526 -2.6307,0.5259 -2.4977,0.7364 -2.4976,0.7364 -1.3208,2.7558 -1.3208,2.7558 1.8184,3.7158 1.8185,3.7158 2.752,0.9489 2.752,0.9489 2.748,-2.0645 2.748,-2.0644 0.01,-4.5922 0.01,-4.5921 10.3135,-11.0371 10.3142,-11.0364 51.6781,0.026 51.6782,0.026 16,17.0854 16,17.0854 55.2536,-0.5623 55.2537,-0.5624 2.4508,2.4509 2.4509,2.4508 h 4.0601 4.0602 l 1.9143,-3.1478 1.9144,-3.1479 3.1734,3.1734 3.1734,3.1734 -2.6025,2.047 -2.6024,2.0471 v 3.3548 3.3549 l 2.65,2.0845 2.65,2.0845 -0.5924,10.461 -0.5924,10.461 2.6924,1.9316 2.6924,1.9316 10,10.1828 10,10.1829 12.5,11.6462 12.5,11.6463 0.7349,2.5977 0.7349,2.5977 2.028,1.8353 2.028,1.8354 h 2.9742 2.9742 l 2.0129,-1.8217 2.0129,-1.8216 v -3.345 -3.3451 l -2,-2 -2,-2 h -3.0657 -3.0658 l -2.0095,1.0755 -2.0096,1.0755 -14.2069,-14.3255 -14.2068,-14.3255 -2.2253,-2.7662 -2.2253,-2.7662 1.1472,-9.7338 1.1472,-9.7338 1.1592,-3.3507 1.1593,-3.3508 5.451,5.8893 5.451,5.8893 3.4442,4.3506 3.4442,4.3506 -1.9442,-0.9925 -1.9442,-0.9925 -3.2374,0.8787 -3.2374,0.8787 -1.5126,2.925 -1.5126,2.925 v 1.9148 1.9148 l 2.0726,2.6349 2.0726,2.6348 h 3.2925 3.2926 l 2.6348,-2.0725 2.6349,-2.0726 v -3.7274 -3.7275 l -1,-1.2 -1,-1.2 0.9469,0.75 0.9469,0.75 5.5674,7.4449 5.5674,7.4449 -3.2526,1.0551 -3.2525,1.0551 -1.3962,2.9167 -1.3962,2.9166 0.8845,2.4812 0.8844,2.4812 2.7418,2.0413 2.7418,2.0413 3.5082,-1.673 3.5082,-1.6729 v -1.0162 -1.0162 h 0.7699 0.77 l 4.124,6.75 4.124,6.75 2.659,5.3212 2.6589,5.3212 6.0168,15.1788 6.0167,15.1788 3.3362,12.0771 3.3363,12.0771 1.7461,12.5558 1.746,12.5557 -0.6206,1.6172 -0.6205,1.6171 -2.2814,-0.028 -2.2814,-0.028 -7.75,-7.4357 -7.75,-7.4358 v -10.6542 -10.6542 l 3.0775,-3.5051 3.0775,-3.505 -0.6405,-2.627 -0.6406,-2.6269 -1.9147,-1.95 -1.9148,-1.95 h -3.4724 -3.4725 l -1.9598,1.7736 -1.9598,1.7736 -0.6112,2.435 -0.6111,2.4351 1.5735,3.0428 1.5735,3.0428 1.4477,0.5556 1.4477,0.5555 v 11.2748 11.2747 l 9.5,9.0821 9.5,9.0821 v 2.0361 2.0362 l 2.0979,2.0979 2.0978,2.0979 2.3256,-0.4446 2.3256,-0.4446 0.5629,2.0967 0.5629,2.0967 0.012,14.49999 0.012,14.5 -1.5647,13.5 -1.5647,13.5 -1.9462,11.5 -1.9461,11.5 -2.1114,8.5 -2.1114,8.5 -4.4297,12 -4.4298,12 -5.8828,12 -5.8828,12 -4.5027,7.8132 -4.5028,7.8132 -8.2249,11.68675 -8.225,11.6868 -7.7831,9 -7.783,9 -11.7378,11 -11.7377,11 -6.401,5.2522 -6.4009,5.2522 -12.6646,8.3361 -12.6645,8.336 -11.5,6.0711 -11.5,6.0711 -9.5166,4.013 -9.5167,4.0131 -2.7333,0.686 -2.7333,0.686 v -1.1001 -1.1 l 27.6624,-28.0375 27.6624,-28.0376 1.0161,0.3387 1.0161,0.3387 0.7677,1.4405 0.7676,1.4405 0.6096,3.8058 0.6096,3.8058 1.9442,1.9442 1.9451,1.9441 h 2.0455 2.0454 l 2.4546,-2.4545 2.4545,-2.4546 v -2.4347 -2.4346 l -1.8601,-2.2972 -1.8601,-2.2971 -4.0904,-0.064 -4.0903,-0.064 -1.0004,-1.0009 -1.0004,-1.0009 0.927,-3.9991 0.927,-3.9991 0.024,-26.5791 0.024,-26.57915 23.75,-23.0624 23.75,-23.0624 19.25,-18.9253 19.25,-18.9252 v -25.4063 -25.4062 l -23.5,-23.57469 -23.5001,-23.574 0.045,-21.4522 0.046,-21.4522 -43.2955,-42.7261 -43.2955,-42.7261 -20.8556,-0.024 -20.8556,-0.024 -2.9711,-2.5 -2.9711,-2.5 h -3.2683 -3.2682 l -1.5771,1.75 -1.5771,1.75 -0.6334,2.5391 -0.6333,2.539 1.0947,2.8795 1.0948,2.8794 1.7107,1.4132 1.7107,1.4131 -2,-0.6503 -2,-0.6502 -6.5,-1.5125 -6.5,-1.5125 -10.5,-1.3994 -10.5,-1.3993 -12.5,-0.014 -12.5,-0.014 -9.72,1.4651 -9.72,1.4652 -8.28,2.0939 -8.28,2.094 -6.8754,2.4587 -6.8753,2.4587 -11.369,5.4041 -11.369,5.4041 -8.7557,6.319 -8.7556,6.319 -6.3014,5.7083 -6.3013,5.7084 -2.4945,-1.1365 -2.4944,-1.1366 0.2958,-1.6675 0.2958,-1.6676 24.7202,-25.3596 24.7203,-25.3597 7.2797,-0.7296 7.2798,-0.7296 7,-0.06 7,-0.06 2.8504,4.5119 2.8505,4.5119 2.1221,1.4863 2.122,1.4864 h 2.3544 2.3544 l 2.9231,-2.9231 2.9231,-2.9231 v -2.9545 -2.9545 l -1.25,-0.9773 -1.25,-0.9774 -3.0052,-1.0077 -3.0052,-1.0077 -2.2683,0.8391 -2.2684,0.8391 -0.7533,2.0364 -0.7533,2.0363 -1.7797,-3.0128 -1.7797,-3.0128 h -15.8456 -15.8456 l -11.3254,11.75 -11.3253,11.75 -15.7725,15.9202 -15.7725,15.9202 v 1.7726 1.7725 l -2.1306,3.611 -2.1305,3.611 1.6152,4.1121 1.6153,4.1121 -1.2084,1.5841 -1.2085,1.584 -3.4995,4 -3.4996,4 -0.4828,-0.1394 -0.4828,-0.1395 -1.7552,-3.2727 -1.7551,-3.2726 2.9612,-3.3727 2.9613,-3.3727 v -3.8102 -3.8102 l -2.0471,-1.8526 -2.0471,-1.8525 34.2971,-34.3359 34.2971,-34.3359 19.8247,0.1466 19.8248,0.1465 0.5026,1.3097 0.5026,1.3097 3.5074,1.6643 3.5074,1.6644 2.4152,-0.6062 2.4153,-0.6062 0.1151,-1.7309 0.1152,-1.731 -0.2046,-2 -0.2046,-2 -2.1603,-2.3302 -2.1603,-2.3303 -3.5003,0.6067 -3.5002,0.6068 -6.5,0.9221 -6.5,0.9222 -15.0064,0.051 -15.0064,0.051 -38.2436,37.7724 -38.2436,37.7723 v 3.5365 3.5366 l 1.4682,1.9411 1.4681,1.9411 0.032,1.8488 0.032,1.8488 -3,2.8024 -3,2.8024 0.015,3.8488 0.015,3.8488 0.7347,1.1003 0.7347,1.1003 2.2878,1.2051 2.2878,1.2051 1.8665,-0.5924 1.8665,-0.5924 -3.6152,6.787 -3.6151,6.787 -3.5391,8.1873 -3.5392,8.1873 -17.75,18.0398 -17.75,18.0398 -0.018,44.27289 -0.018,44.2729 26.034,25.7267 26.0339,25.7267 0.9395,2.471 0.9394,2.471 2.5761,1.6879 2.5762,1.688 3.1978,-0.9172 3.1979,-0.9171 1.4488,-2.5813 1.4488,-2.5812 -1.2457,-3.0075 -1.2458,-3.0076 -2.3317,-1.0624 -2.3318,-1.0624 -2.3506,0.5771 -2.3507,0.5772 -1.2561,0.983 -1.2561,0.9831 -24.497,-24.3775 -24.497,-24.3775 v -43.5418 -43.54179 l 4.5459,-4.4582 4.546,-4.4582 -1.6057,3.223 -1.6057,3.2229 1.7172,3.6189 1.7173,3.6189 1.3425,0.5151 1.3425,0.5152 v 30.70489 30.705 l -2.8762,2.1264 -2.8761,2.1264 -0.6451,2.5703 -0.6451,2.5703 1.4741,2.8505 1.474,2.8505 3.0278,1.2541 3.0277,1.2542 2.5505,-0.6402 2.5504,-0.6401 1.9652,-3.2231 1.9653,-3.2232 v -1.8269 -1.8269 l -3.25,-3.1731 -3.25,-3.1731 -0.2918,-30.3061 -0.2917,-30.30599 2.5715,-3.056 2.5715,-3.056 -0.4942,3.8621 -0.4942,3.862 -0.5374,5.99999 -0.5374,6 0.9508,13.0319 0.9508,13.0318 2.1266,9.8155 2.1266,9.8154 4.4602,13.0216 4.4602,13.0215 1.5915,3.1311 1.5914,3.1312 -2.4416,-2.25 -2.4417,-2.25 h -2.5507 -2.5507 l -2.6349,2.0726 -2.6348,2.0726 v 3.8884 3.8885 l 2.1885,2.0389 2.1886,2.039 h 2.8884 2.8883 l 3.0252,-3.0252 3.0252,-3.0251 -0.6325,-2.7249 -0.6324,-2.7248 3.8849,7.0442 3.8849,7.0442 4.3918,6.9558 4.3918,6.9558 8.0036,8.6884 8.0037,8.6884 9.5,7.6209 9.5,7.6209 10.2819,6.3285 10.2819,6.3286 9.4681,4.34305 9.4681,4.3431 v 0.7691 0.769 h -1.8257 -1.8257 l -2.3486,2.5 -2.3487,2.5 h -33.2397 -33.2397 l -48.9302,-49.63115 -48.9302,-49.6313 -0.7029,-39.0646 -0.7029,-39.06469 26.0471,-26.061 26.0469,-26.0611 v -38.1648 -38.1647 l 27.2258,-26.3283 27.2257,-26.3283 18.5577,-18.25 18.5577,-18.25 h 15.3222 15.3221 l 2.9711,2.5 2.9711,2.5 h 1.4729 1.473 l 2.8291,-1.4631 2.8292,-1.463 0.6212,-1.6187 0.6212,-1.6188 v -2.2632 -2.2633 l -1.8288,-1.655 -1.8287,-1.6549 h -3.3568 -3.3568 l -2.3943,2.25 -2.3942,2.25 -16.8003,0.3484 -16.8004,0.3485 -11.8699,12.0223 -11.8698,12.0223 -35.3316,34.0617 -35.3316,34.0618 0.273,37.9093 0.2731,37.9093 -25.6915,25.581 -25.6914,25.5811 -0.01,41.07709 -0.01,41.0771 50.9197,50.7741 50.9198,50.77405 33.743,0.037 33.743,0.037 2.7449,2.9384 2.7449,2.9385 h 3.4245 3.4245 l 2.1743,-2.3145 2.1743,-2.3144 v -2.963 -2.9631 l -1.6301,-2.3273 -1.6302,-2.3274 1.8802,0.9896 1.8801,0.9895 7.5,2.0399 7.5,2.0398 9,1.7742 9,1.7742 18.5,0.013 18.5,0.013 2.8367,-0.7523 2.8368,-0.7523 -0.5746,23.1175 -0.5745,23.1176 -2.0122,2.5581 -2.0122,2.5581 0.022,2.6152 0.022,2.6151 1.7278,2.133 1.7277,2.1329 2.1846,1.1172 2.1845,1.1172 2.4248,-0.9219 2.4248,-0.922 0.6407,-3.2032 0.6406,-3.2032 v -1.9519 -1.9519 l -2.75,-2.7552 -2.75,-2.7551 0.062,-2.918 0.062,-2.9179 0.1876,-19.7115 0.1875,-19.7114 4.25,-1.0804 4.25,-1.0804 8.5,-2.3833 8.5,-2.3834 1.75,-0.6818 1.75,-0.6818 v 9.107 9.107 l 2,2 2,2 h 1 1 l -0.02,-1.25 -0.02,-1.25 -1.0187,-7 -1.0186,-7 0.6458,-3.8655 0.6459,-3.8655 10.2205,-4.7846 10.2204,-4.78445 9.9221,-6.6817 9.9222,-6.6817 8.8157,-8.6683 8.8157,-8.6682 6.8056,-8 6.8057,-8 7.6583,-12.2456 7.6583,-12.2456 0.564,-1.4698 0.5641,-1.4697 2.4502,2.9119 2.4502,2.9119 1.9183,0.6089 1.9183,0.6088 1.7878,-0.9646 1.7878,-0.9646 4.4082,-3.8408 4.4083,-3.8408 12.8417,-11.9409 12.8418,-11.9408 v -12.4148 -12.4148 l 2.5,-2.9711 2.5,-2.9711 v -2.2489 -2.249 l -2.3145,-2.1743 -2.3144,-2.1742 h -3.1289 -3.1288 l -1.5567,2.2224 -1.5567,2.2225 v 2.8253 2.8252 l 2.5,2.3169 2.5,2.3169 v 11.3854 11.3853 l -5.2482,5.6698 -5.2482,5.6698 -7.8379,7.1066 -7.8379,7.1066 -3.4469,-3.0264 -3.4469,-3.0264 h -1.031 -1.0309 l -2.0806,1.1135 -2.0806,1.1135 0.5948,-1.8635 0.5948,-1.8635 4.004,-11.5 4.0041,-11.5 1.6612,-11.4889 1.6611,-11.4889 -0.4849,-22.5111 -0.485,-22.51099 -2.7438,-10.5 -2.7439,-10.5 -3.9738,-9.9933 -3.9738,-9.9933 -4.3864,-8.7486 -4.3864,-8.7485 -6.7535,-10.2582 -6.7541,-10.2577 -11.5211,-11.5241 -11.5212,-11.524 -11.413,-8.2578 -11.413,-8.2578 -7.587,-3.6379 -7.5869,-3.6379 -9.5,-3.8032 -9.5,-3.8033 2.3819,-0.027 2.3819,-0.027 3.3009,-3.5 3.301,-3.5 19.8171,0.001 h 19.8171 l 41.4735,40.8117 41.4735,40.8116 -0.3192,21.3145 -0.3192,21.3144 23.9567,24.1224 23.9566,24.12239 0.2045,23.0168 0.2044,23.0167 -36.8271,36.4833 -36.8271,36.4832 -6.7383,6.2158 -6.7383,6.2158 v 28.79195 28.792 l -24.1295,23.9922 -24.1295,23.9922 0.8215,-1.5 0.8214,-1.5 -1.66,1.3459 -1.66,1.3459 0.2181,1.0331 0.218,1.0331 -2.2083,0.2008 -2.2083,0.2008 -0.5103,-1.3298 -0.5103,-1.3298 h -6.1374 -6.1375 l -1.9061,-2.4232 -1.9061,-2.4232 -2.9148,-0.6402 -2.9149,-0.6402 -2.9558,1.5285 -2.9558,1.5285 -0.6065,2.4164 -0.6064,2.4163 1.0977,3.149 1.0977,3.1489 2.8354,1.4662 2.8354,1.4662 2.8062,-1.0597 2.8062,-1.0598 2.0469,-2.5511 2.047,-2.5512 6.4126,0.8643 6.4127,0.8643 -4.3988,4.75 -4.3988,4.75 h -10.2 -10.2001 l -2.3608,-1.9141 -2.3607,-1.9141 -0.077,-16.8359 -0.077,-16.8359 9.8391,-9.6654 9.8392,-9.6655 7.9878,-6.7408 7.9879,-6.7408 v -10.6888 -10.6887 l 2.118,-1.905 2.118,-1.905 0.7446,-1.9948 0.7446,-1.9948 -0.971,-2.7856 -0.9711,-2.78555 -2.8282,-1.4625 -2.8282,-1.4625 -1.8133,0.6449 -1.8134,0.6449 -1.75,1.503 -1.75,1.50295 v 3.8927 3.8928 l 2.5,2.3169 2.5,2.3169 v 9.0052 9.0052 l -10.75,9.871 -10.75,9.871 -7.3062,6.9827 -7.3062,6.9826 0.3062,19.7431 0.3062,19.7431 1.7853,1.7834 1.7853,1.7834 8.7147,0.286 8.7147,0.2859 2.5,0.5501 2.5,0.55 -2.5,1.306 -2.5,1.3059 -10.5,2.5986 -10.5,2.5986 -5.6193,0.2595 -5.6193,0.2594 -30.6187,-30.25 -30.6187,-30.25 h -42.4665 -42.4666 l -2.5,-2.5 -2.5,-2.5 h -2.4687 -2.4687 l -3.0768,2.5889 -3.0767,2.5889 v 2.6886 2.6886 l 1.6009,2.2856 1.6009,2.2856 2.447,0.9304 2.4469,0.9303 3.4585,-1.4451 3.4585,-1.4451 0.9689,-2.5483 0.9689,-2.5484 h 40.4239 40.4239 l 6.3509,5.8488 6.3508,5.8488 23.3064,23.0112 23.3064,23.0112 -3.8064,0.6678 -3.8064,0.6678 -21.6195,-22.0278 -21.6196,-22.0278 h -10.9741 -10.97 l -1.0303,-2.2614 -1.0303,-2.2613 -2.5532,-1.3664 -2.5531,-1.3664 -2.6025,0.6532 -2.6025,0.6532 -2.2231,2.2245 -2.2232,2.2246 -13.1536,0.3458 -13.1536,0.3457 -0.6346,-1.9992 -0.6345,-1.9993 -3.3644,-1.5965 -3.3643,-1.5965 h -1.0222 -1.0221 l -3.0768,2.5889 -3.0767,2.5889 v 3.4111 3.4111 l 2,2 2,2 h 3.4233 3.4233 l 2.971,-2.5 2.9711,-2.5 h 13.6057 13.6056 v 0.8114 0.8115 l 2.039,2.1885 2.0389,2.1886 h 2.8262 2.8262 l 2.5426,-2 2.5426,-2 h 10.4969 10.4969 l 18.3454,19.0882 18.3453,19.0883 0.3333,0.9117 0.3334,0.9118 h -4.4117 -4.4118 l -14.5802,-15 -14.5803,-15 h -20.697 -20.697 l -2.9711,-2.5 -2.971,-2.5 h -3.4233 -3.4233 l -2,2 -2,2 v 3.0455 3.0454 l 2.4546,2.4546 2.4545,2.4545 h 3.1443 3.1442 l 2.8024,-3 2.8024,-3 h 19.3633 19.3632 l 12.9711,13 12.9712,13 -15.4856,-0.1085 -15.4856,-0.1084 -10.7091,-1.2966 z m 80.7546,-24.941 2.4546,-2.4546 v -3.5155 -3.5155 l -3,-2.218 -3,-2.218 v -9.3609 -9.361 l 9.2223,-8.701 9.2224,-8.701 5.2776,-5.0775 5.2777,-5.0775 v -1.1725 -1.1725 h -1.607 -1.607 l -10.0306,9.5375 -10.0306,9.5374 -1.1124,-0.3679 -1.1124,-0.368 -0.2882,-8.0295 -0.2882,-8.0294 2.4513,-1.6062 2.4513,-1.6061 0.6534,-2.9753 0.6535,-2.9752 -1.0962,-2.0483 -1.0962,-2.0483 -3.0204,-1.5619 -3.0203,-1.5619 -2.2,0.6665 -2.2,0.6665 -2.25,2.0593 -2.25,2.0594 v 3.2543 3.2542 l 1.5493,1.5494 1.5494,1.5494 1.4664,0.8206 1.4664,0.8207 0.6209,8.4514 0.621,8.4514 0.9766,1.239 0.9765,1.2389 -3.1086,3.5406 -3.1087,3.5405 0.459,9.5498 0.4589,9.5498 -2.6654,2.2927 -2.6654,2.2926 0.1092,3.85 0.1091,3.8499 2.6484,2.2781 2.6485,2.2781 h 2.4897 2.4897 z m -7.2705,-5.5455 0.1507,-2 h 1.7872 1.7872 v 2 2 h -1.9379 -1.9378 z m 1.1657,-61.096 -0.6773,-1.0959 1.5224,-1.5224 1.5223,-1.5223 1.0755,0.6646 1.0755,0.6647 -1.2201,1.9537 -1.22,1.9536 h -0.7005 -0.7004 z m 53.6251,56.0608 1.9342,-1.0352 v -1.3305 -1.3306 l 21.5,-21.1302 21.5,-21.1302 v -28.421 -28.42105 l 33.2435,-32.333 33.2435,-32.333 9.2477,-9.5 9.2478,-9.5 0.046,-18 0.046,-18 -26.4674,-25.99989 -26.4674,-26 0.1805,-9.6457 0.1806,-9.6457 1.75,-1.9331 1.75,-1.933 v -2.1811 -2.181 l -2,-1.7125 -2,-1.7124 v -7.5733 -7.5733 l -32.25,-31.1244 -32.25,-31.1244 -2.75,-2.1526 -2.75,-2.1527 v -3.7531 -3.7531 l -2.3859,-2.2415 -2.386,-2.2415 -3.7646,0.3172 -3.7648,0.3172 -2.008,2.701 -2.008,2.701 0.9169,3.1972 0.9169,3.1972 2.7157,2.0276 2.7157,2.0275 3.3641,-1.0325 3.3641,-1.0324 34.162,32.9646 34.1619,32.9647 v 6.7696 6.7696 l -1.5,1.2449 -1.5,1.2448 0.032,2.6276 0.032,2.6276 1.4682,1.9411 1.4682,1.9411 v 10.4926 10.4926 l 26,25.4178 26,25.41769 v 17.2998 17.2998 l -29.1542,28.3487 -29.1542,28.3487 -12.8371,12.6514 -12.8372,12.6514 -0.5708,28.84855 -0.5709,28.8486 -10.6878,10.8073 -10.6878,10.8073 -9.9358,8.6927 -9.9358,8.6927 -2.8639,2.7228 -2.8639,2.7228 1.0849,2.0272 1.0849,2.0272 h 1.5306 1.5305 l 1.9343,-1.0352 z m -1.9477,-388.89174 -1.3148,-0.8126 0.3598,-1.8687 0.3599,-1.8687 1.6092,-0.3099 1.6092,-0.3099 0.5261,2.0117 0.526,2.0116 -1.1803,0.9796 -1.1802,0.9796 z m 52.0749,383.17694 1.503,-1.75 0.6792,-1.9026 0.6792,-1.9026 -1.1105,-3.3648 -1.1105,-3.3648 -2.8533,-1.4755 -2.8534,-1.4755 -1.8133,0.6419 -1.8134,0.6419 -2.25,2.0253 -2.25,2.0253 v 3.1909 3.1908 l 2.0726,2.6348 2.0726,2.6349 h 3.7724 3.7724 z m -8.193,-6.143 v -1.893 l 1.3407,-0.5145 1.3407,-0.5145 1.1932,0.7375 1.1931,0.7374 -0.6408,1.67 -0.6409,1.6701 h -1.893 -1.893 z m -62.1281,4.7878 3.1704,-1.1052 1.0663,-1.9924 1.0664,-1.9925 1.4692,2.0976 1.4693,2.0977 h 2.468 2.4681 l 0.8952,-2.25 0.8952,-2.25 18.08,-17.9896 18.08,-17.9896 v -31.0376 -31.03765 l 14.25,-14.6366 14.25,-14.6366 3.151,0.5128 3.1511,0.5128 2.0989,-2.0989 2.099,-2.099 v -2.5 -2.5 l -2,-2 -2,-2 h -2.1855 -2.1856 l -2.3144,2.1743 -2.3145,2.1743 v 2.3274 2.3274 l -15.5,15.1882 -15.5,15.1882 v 31.44645 31.4464 l -17.7228,18.1137 -17.7228,18.1136 -2.2687,0.3156 -2.2687,0.3156 -1.1934,-2.6191 -1.1933,-2.6191 15.7788,-15.8019 15.7788,-15.802 -0.1373,-16.1727 -0.1372,-16.1726 3.0433,-2.56075 3.0433,-2.5608 v -2.3293 -2.3293 l -0.6212,-1.6188 -0.6212,-1.6188 -2.8291,-1.463 -2.8292,-1.463 h -2.0951 -2.0951 l -2.4545,2.4545 -2.4546,2.4546 v 3.1442 3.1443 l 3,2.8024 3,2.80235 v 14.9314 14.9314 l -15.4273,15.1674 -15.4273,15.1674 h -2.5727 -2.5726 l -2,2 -2,2 0.015,3.25 0.015,3.25 0.7346,1.0855 0.7347,1.0854 2,1.1342 2,1.1341 0.1008,0.03 0.1008,0.03 3.1703,-1.1052 z m -3.2052,-5.5615 -0.6666,-0.6666 v -0.8334 -0.8333 h 1.5 1.5 v 1.5 1.5 h -0.8334 -0.8333 z m 34,-75.99995 -0.5289,-0.5288 0.5381,-1.4023 0.5381,-1.4022 h 1.2263 1.2264 v 1.457 1.4569 l -1.2356,0.4742 -1.2356,0.4741 z m -255.4954,62.01165 1.8288,-1.655 v -2.3904 -2.3905 l -2.4546,-2.4546 -2.4545,-2.4545 h -2.2179 -2.2179 l -16.552,-17.1416 -16.5521,-17.1416 0.297,-2.8313 0.297,-2.8314 -2.5271,-2.527 -2.527,-2.5271 h -3.7686 -3.7685 l -6.1471,-6.09245 -6.1471,-6.0924 1.0122,-3.9878 1.0122,-3.9877 -2.0455,-2.0455 -2.0454,-2.0454 -4.1955,-0.11 -4.1955,-0.11 -2.4934,2.8988 -2.4935,2.8988 0.5954,3.0869 0.5954,3.0868 2.1078,1.75 2.1077,1.75 h 3.6123 3.6123 l 6.2769,6.2211 6.277,6.22105 v 2.8244 2.8243 l 2.4545,2.4546 2.4545,2.4545 h 3.7321 3.7321 l 16.1442,16.4726 16.1442,16.4726 -0.4369,2.9768 -0.4369,2.9769 2.7521,2.5505 2.7521,2.5506 h 2.0252 2.0253 z m -4.1712,-4.845 v -0.5 h 0.5 0.5 v 0.5 0.5 h -0.5 -0.5 z m -46,-44 v -0.5 h 0.5 0.5 v 0.5 0.5 h -0.5 -0.5 z m 1,-2 v -0.5 h 0.5 0.5 v 0.5 0.5 h -0.5 -0.5 z m -25,-21.93035 v -1.5696 h 2.5833 2.5833 l -0.4116,1.25 -0.4117,1.25 -2.1717,0.3196 -2.1716,0.3195 z m 399.8405,66.82945 2.2856,-1.6009 0.9304,-2.4469 0.9303,-2.447 -1.4483,-3.4662 -1.4483,-3.4662 -1.5451,-0.5929 -1.5452,-0.593 v -20.7084 -20.70835 l 43.5,-43.3004 43.5,-43.3004 v -39.3002 -39.30009 l -4.25,-3.307 -4.25,-3.307 -9.7091,-8.9135 -9.7091,-8.9136 -0.2909,-30.1134 -0.2909,-30.1135 -18.4806,-18 -18.4806,-18 -15.702,-15.3698 -15.7021,-15.3697 -2.9743,-2.1131 -2.9743,-2.113 -0.563,-3.4695 -0.563,-3.4695 2.9203,-2.5477 2.9203,-2.5477 0.2525,-2 0.2526,-2 -0.7174,-2.7319 -0.7174,-2.7318 -3.0585,-1.5816 -3.0585,-1.5816 -2.9148,0.6402 -2.9148,0.6402 -2.0122,2.5581 -2.0122,2.5581 v 2.497 2.4971 l 3.5,3.3009 3.5,3.301 v 3.4563 3.4564 l 1.75,2.0059 1.75,2.0059 6,5.2833 6,5.2833 29.75,28.978 29.75,28.9779 v 29.7597 29.7596 l 14.1497,13.4619 14.1497,13.4619 -0.033,36.87199 -0.033,36.8721 -43.617,43.4845 -43.6169,43.4845 v 20.81345 20.8134 l -2.5927,2.2302 -2.5927,2.2301 -0.1091,3.8499 -0.1091,3.85 2.7576,2.3719 2.7575,2.372 h 2.2218 2.2217 l 2.2856,-1.6009 z m -6.4606,-5.8512 -0.5572,-1.4521 0.6476,-1.0479 0.6476,-1.0479 1.691,0.079 1.691,0.079 -1.25,0.5044 -1.25,0.5044 v 0.9757 0.9756 l 0.8333,-0.515 0.8334,-0.515 v 1.456 1.456 h -1.3647 -1.3648 l -0.5572,-1.4521 z m -16.6962,-384.78974 -1.7926,-1.3108 0.6821,-1.7777 0.6822,-1.7777 2.6137,0.3041 2.6137,0.3041 0.367,2 0.367,2 -0.7596,-0.7345 -0.7595,-0.7345 -1.1107,1.5189 -1.1106,1.5189 z m -170.6837,373.34734 2.5,-1.8042 0.3171,-3.7647 0.3172,-3.7647 -2.2415,-2.386 -2.2415,-2.3859 h -4.2531 -4.2531 l -2.0726,2.6349 -2.0725,2.6348 v 1.8652 1.8651 h -50.1136 -50.1136 l -55.3864,-55.34895 -55.3864,-55.349 v -32.8366 -32.8364 l 1.9258,-2.0645 1.9259,-2.0644 0.6762,-2.7249 0.6762,-2.7248 -3.0251,-3.02519 -3.0252,-3.0251 h -2.4219 -2.422 l -1.855,2.0497 -1.8549,2.04969 v 3.423 3.4229 l 2.2,2.3418 2.2,2.3418 v 33.5077 33.5077 l 55.3053,55.1973 55.3054,55.19725 2.1315,1.493 2.1316,1.493 50.8131,0.3244 50.8131,0.3244 3,1.6466 3,1.6466 2.5,-0.5286 2.5,-0.5287 z m -8,-5.4801 v -2.5074 l 1.0089,-0.6235 1.009,-0.6236 2.0493,0.6504 2.0493,0.6505 -0.3082,2.1641 -0.3083,2.1641 -2.75,0.3164 -2.75,0.3164 z M 3063.1591,357.16652 v -1.3611 l 1.0208,0.3403 1.0209,0.3403 0.3402,1.0208 0.3403,1.0208 h -1.3611 -1.3611 z m 256.8934,190.94435 1.5367,-1.75 0.7091,-2.3237 0.709,-2.3237 -1.2316,-2.9735 -1.2317,-2.9734 -2.8094,-1.4529 -2.8095,-1.4528 h -1.4148 -1.4148 l -2.5225,1.9842 -2.5225,1.9842 -0.67,2.6695 -0.67,2.6696 1.1288,2.7252 1.1288,2.7252 2.1788,1.0534 2.1789,1.0533 3.095,0.068 3.095,0.068 1.5367,-1.75 z m -7.9799,-4.4032 -1.1532,-1.1532 0.9883,-1.8468 0.9884,-1.8468 h 1.3424 1.3424 l 1.1397,1.3733 1.1397,1.3732 -0.6243,1.6268 -0.6242,1.6267 h -1.693 -1.693 z m 3.2532,-2.8468 0.618,-1 h -0.5 -0.5 l -0.618,1 -0.6181,1 h 0.5 0.5 z m 155.4999,-14.7748 v -21.77475 l 43.5,-42.807 43.5,-42.807 v -32.2005 -32.2004 l -19.5,-19.92259 -19.5,-19.9227 v -16.8938 -16.8939 l 3,-2.8024 3,-2.8025 v -3.488 -3.488 l -1.75,-2.1412 -1.75,-2.1412 -3.6765,-0.5885 -3.6766,-0.5885 -2.5734,2.5735 -2.5735,2.5734 v 3.9566 3.9566 l 2.8729,2.4173 2.8728,2.4174 0.1702,18.4215 0.1701,18.4216 19.0904,19.1428 19.0903,19.14289 -0.01,30.7327 -0.01,30.7328 -37.3741,37.1888 -37.3741,37.1889 -6,5.3389 -6,5.3388 -0.3318,22.84665 -0.3319,22.8466 h 2.5819 2.5818 v -21.7748 z m 43.3588,-253.73244 -0.6323,-1.6477 1.4592,-1.4592 1.4592,-1.4592 1.7304,0.664 1.7304,0.664 -0.3028,2.1227 -0.3029,2.1228 -2.2545,0.3201 -2.2544,0.3201 z m -13.1658,272.75724 1.503,-1.75 0.6252,-1.7618 0.6251,-1.7619 -1.1336,-2.4881 -1.1337,-2.4882 h -0.8395 -0.8395 v -10.0615 -10.0615 l 22.894,-22.85705 22.894,-22.8571 3.739,0.8433 3.739,0.8433 2.1581,-0.8205 2.1581,-0.8205 1.307,-1.5749 1.3071,-1.5749 0.099,-3.483 0.099,-3.483 -1.8006,-1.9896 -1.8006,-1.9896 -2.8376,-0.6233 -2.8377,-0.6232 -2.3086,1.2299 -2.3087,1.2299 -1.2182,1.5866 -1.2182,1.5867 -0.032,3.296 -0.032,3.296 -14.75,14.3109 -14.75,14.3108 -9.5,9.0385 -9.5,9.0385 -0.3389,10.53005 -0.3389,10.5301 -1.9111,1.7295 -1.9111,1.7296 v 2.6225 2.6225 l 1.5567,2.2225 1.5567,2.2225 h 2.7883 2.7883 l 1.503,-1.75 z m 48.1697,-81.74705 -0.6283,-1.6373 1.0266,-1.0266 1.0266,-1.0266 1.8562,0.3575 1.8562,0.3575 v 1.9863 1.9863 l -2.2545,0.3201 -2.2544,0.3202 z m 2.304,-1.1696 -0.6667,-0.6666 v 1.3333 1.3333 l 0.6667,-0.6666 0.6666,-0.6667 z m -159.5897,76.74355 2.9231,-2.9231 v -3.1426 -3.1427 l -0.9618,-1.7971 -0.9618,-1.7971 -2.9355,-1.2159 -2.9356,-1.216 -3.073,1.5892 -3.0731,1.5891 -1.0296,1.9239 -1.0296,1.9239 v 3.1112 3.1112 l 2.4545,2.4546 2.4545,2.4545 h 2.6224 2.6224 z m -8.0769,-4.5769 v -0.5 h 0.5 0.5 v 0.5 0.5 h -0.5 -0.5 z m 4,-3 v -0.5 h 0.5 0.5 v 0.5 0.5 h -0.5 -0.5 z m 131.9967,-3.25 3.0284,-2.75 0.1802,-3 0.1802,-3 2.9743,-5.5 2.9743,-5.49995 1.4879,-1.75 1.4879,-1.75 h 1.9219 1.9219 l 2.9231,-2.9231 2.9231,-2.9231 v -2.1538 -2.1538 l -2.9231,-2.9231 -2.9231,-2.9231 h -2.3544 -2.3544 l -2.2856,1.6009 -2.2856,1.6009 -0.9545,2.5106 -0.9546,2.5105 1.4119,2.8302 1.4118,2.8301 -3.0142,5.8084 -3.0142,5.80835 -0.7172,0.7872 -0.7171,0.7871 -2.7107,-1.0306 -2.7107,-1.0306 -3.3716,1.4088 -3.3717,1.4088 -1.0805,2.0189 -1.0805,2.0189 v 2.6112 2.6112 l 2.4546,2.4546 2.4545,2.4545 h 3.0297 3.0296 z m -8.6401,-3.7627 -0.5804,-1.5128 1.2343,-1.4872 1.2343,-1.4873 h 2 2 l -1.2085,1.4562 -1.2086,1.4562 0.6552,1.0601 0.6552,1.0601 1.0854,-0.6708 1.0854,-0.6708 -0.7135,1.1545 -0.7135,1.1545 h -2.4724 -2.4724 z m 20.8933,-25.21785 -1.25,-0.4361 v -1.8576 -1.8577 l 0.9098,-0.5622 0.9097,-0.5623 1.5903,0.6102 1.5902,0.6103 v 1.786 1.786 l -1.25,0.4597 -1.25,0.4597 z m 1.3384,-4.0143 -0.5884,-0.5884 -0.6235,0.6235 -0.6236,0.6235 0.7783,1.7932 0.7783,1.7931 0.4337,-1.8283 0.4336,-1.8282 z m -315.5883,18.74485 2,-1.99995 v -2.9274 -2.9274 l -2.6349,-2.0726 -2.6349,-2.0726 h -1.7884 -1.7884 l -2.9711,2.5 -2.9711,2.5 -15.3556,0.042 -15.3556,0.042 -40.6681,-41.1077 -40.668,-41.1077 -0.019,-32.8405 -0.019,-32.8403 -0.6833,-3.6426 -0.6834,-3.64249 25.6205,-25.7432 25.6204,-25.7432 v -36.3883 -36.3882 l 41.0202,-40.8535 41.0202,-40.8535 37.5343,0.016 37.5343,0.016 15.3017,15.7493 15.3017,15.7493 47.8938,0.357 47.8937,0.3569 8.5,8.7033 8.5,8.7032 31.6478,31.2081 31.6478,31.2081 h 2.1856 2.1855 l -0.3645,-1.0936 -0.3646,-1.0937 -41.4227,-41.4063 -41.4228,-41.4063 h -47.6125 -47.6126 l -15.8047,-16 -15.8047,-16 -38.1287,0.01 -38.1287,0.01 -43.3906,43.0491 -43.3905,43.0491 0.4925,35.8233 0.4924,35.8234 -25.3891,25.3709 -25.3891,25.3708 0.2669,19.49999 0.2669,19.5 -0.8694,3.8047 -0.8695,3.8047 1.287,2.4047 1.2869,2.4047 -0.5515,12.7715 -0.5516,12.7715 42.0333,42.2048 42.0333,42.2049 16.6237,0.3142 16.6237,0.3143 2.2473,2.24995 2.2474,2.25 h 3 3 l 2,-2 z m -17.6349,-14.07255 2.6349,-2.0726 v -2.4728 -2.4729 l -2.4546,-2.4546 -2.4545,-2.4545 h -2.4688 -2.4687 l -2.9711,2.5 -2.9711,2.5 h -5.6326 -5.6326 l -18.723,-18.7668 -18.723,-18.7669 -14.8661,-15.1688 -14.8661,-15.1688 0.1679,-27.5392 0.1679,-27.5393 3.0715,-3.0714 3.0715,-3.0715 -0.5929,-3.7036 -0.5929,-3.7036 -2.1412,-1.75 -2.1412,-1.74999 h -3.4347 -3.4347 l -2.4545,2.45449 -2.4545,2.4545 v 3.4607 3.4607 l 3,2.8315 3,2.8315 v 27.956 27.956 l 12.7347,13.0472 12.7348,13.0473 22.3442,22.705 22.3441,22.705 6.3615,-0.594 6.3615,-0.5941 3.1363,2.6391 3.1363,2.639 h 2.2884 2.2884 z m -6.3651,-3.4274 v -0.5 h 0.5 0.5 v 0.5 0.5 h -0.5 -0.5 z m -90.6433,-134.0127 -0.5805,-1.5127 1.2343,-1.4873 1.2343,-1.4872 h 1.3186 1.3185 l 0.6872,1.1118 0.6871,1.1118 -1.2562,0.7764 -1.2563,0.7763 0.6872,1.1119 0.6871,1.1118 h -2.0904 -2.0904 z m -30.3567,99.5717 v -0.941 l -1,-0.618 -1,-0.618 v 1.559 1.559 h 1 1 z m 417.5454,-21.5135 2.4545,-2.4546 v -1.6021 -1.6022 l -2.0987,1.47 -2.0987,1.4699 -1.342,2.5868 -1.342,2.5867 h 0.9862 0.9861 z m 18.9374,-17.436 10.9829,-11.0867 0.6968,-1.7614 0.6968,-1.7614 0.07,-7.75 0.07,-7.75 2,-2 2,-2 v -3.3776 -3.3775 l -1.5031,-1.2475 -1.5031,-1.2474 h -2.53 -2.5301 l -1.9668,1.78 -1.9669,1.78 v 2.6539 2.6538 l 1.4682,1.9412 1.4682,1.9411 0.032,9.0483 0.032,9.0483 -10.5,10.309 -10.5,10.3091 v 0.8093 0.8093 l -1.177,0.3924 -1.1771,0.3923 0.7377,1.1937 0.7378,1.1937 1.6893,-0.9046 1.6893,-0.9047 10.9829,-11.0866 z m -26.0075,-1.2688 2.7452,-2.1594 -0.539,-4.0182 -0.5389,-4.0183 3.9286,-4.4632 3.9287,-4.4632 v -15.3906 -15.3906 l 1.537,-0.5898 1.537,-0.5897 1.463,-2.8292 1.463,-2.8291 v -1.6266 -1.6266 l -2.9231,-2.9231 -2.923,-2.923 h -3.1224 -3.1224 l -2.4545,2.4545 -2.4546,2.4545 v 3.5029 3.5028 l 3.5,2.7926 3.4999,2.7926 10e-5,13.397 v 13.397 l -3.5669,4.353 -3.567,4.353 h -2.8223 -2.8222 l -2.1078,1.75 -2.1078,1.75 -0.5811,3.0158 -0.5812,3.0158 2.1507,2.7342 2.1508,2.7342 h 2.7925 2.7926 z m -6.9754,-4.8407 -0.618,-1 0.618,-1 0.618,-1 h 0.941 0.941 v 2 2 h -0.941 -0.941 z m 10.9069,-51.3819 -0.5841,-1.5223 0.6476,-1.0479 0.6476,-1.0478 h 2.5106 2.5105 l -0.3195,2.25 -0.3196,2.25 -2.2545,0.3201 -2.2544,0.3201 z m 3.2598,-2.2847 -0.6667,-0.6667 v 1.3334 1.3333 l 0.6667,-0.6667 0.6666,-0.6666 z m -434.1212,35.2121 2.4546,-2.4546 v -2.9729 -2.9728 l -2.5,-1.9665 -2.5,-1.9665 v -18.6686 -18.66869 l 10.2058,-10.6874 10.2059,-10.6874 20.8516,-21.0661 20.8517,-21.0661 -0.084,-29.4388 -0.084,-29.4388 2.0267,-1.7354 2.0267,-1.7353 v -2.3354 -2.3355 l -2.4149,-2.2687 -2.415,-2.2687 -2.1117,0.6702 -2.1117,0.6702 -1.4999,2.2892 -1.5,2.2892 0.9649,2.5378 0.9649,2.5379 1.0617,0.6561 1.0617,0.6562 v 28.7199 28.7198 l -6.5862,6.4711 -6.5861,6.4712 -24.7686,25.5152 -24.7687,25.5152 0.2446,18.93649 0.2447,18.9364 -2.8899,2.6995 -2.8898,2.6995 v 2.4077 2.4076 l 1.25,1.5668 1.25,1.5669 2,1.0939 2,1.0939 1.7954,0.03 1.7955,0.03 2.4545,-2.4545 z m -6.3163,-4.733 0.3959,-1.1875 1.0208,-0.3403 1.0208,-0.3403 v 1.5278 1.5278 h -1.4166 -1.4167 z m 104.2261,-110.43359 1.6187,-0.6212 1.5229,-2.9448 1.5228,-2.9449 -2.0598,-3.4911 -2.0598,-3.4912 0.01,-16.1928 0.01,-16.1928 39.6944,-39.75 39.6944,-39.75 h 28.5708 28.5708 l 8.2731,8.3162 8.273,8.3162 -1.0706,2.8159 -1.0705,2.8158 0.6437,2.1179 0.6437,2.118 1.5368,1.75 1.5367,1.75 h 3.2561 3.2561 l 2.5889,-3.0768 2.5889,-3.0767 v -2.4687 -2.4688 l -2.5735,-2.5734 -2.5734,-2.5735 -3.4266,0.5561 -3.4265,0.556 v -0.8707 -0.8706 l -8.1089,-8.5665 -8.1088,-8.5664 h -30.3252 -30.3252 l -41.5909,41.465 -41.5909,41.4651 0.2749,16.2414 0.275,16.2413 -2.25,2.2481 -2.25,2.2481 v 2.4106 2.4106 l 2.0726,2.6349 2.0725,2.6349 h 1.3457 1.3456 l 1.6188,-0.6212 z m 156.8766,-101.9564 -0.6053,-1.5775 1.6367,-1.6368 1.6368,-1.6367 1.6367,1.6367 1.6367,1.6368 -0.6053,1.5775 -0.6054,1.5776 h -2.0627 -2.0628 z m -58.6886,16.9992 1.537,-2.3456 -1.1702,-3.5457 -1.1702,-3.5457 -1.8542,-0.9923 -1.8542,-0.9923 h -3.509 -3.509 l -1.5567,2.2225 -1.5567,2.2225 v 2.555 2.5549 l 1.607,2.2944 1.607,2.2943 2.1378,0.7908 2.1378,0.7908 2.8084,-0.979 2.8083,-0.979 z m -9.1432,-2.4216 -0.6181,-1 0.6181,-1 0.618,-1 h 1.441 1.441 v 2 2 h -1.441 -1.441 z m -108.5716,1.5369 2.8292,-1.463 0.6212,-1.6187 0.6212,-1.6188 v -1.9679 -1.9679 l -1.5715,-3.0388 -1.5715,-3.0389 12.0291,-12.1615 12.029,-12.1614 3.6968,-0.082 3.6967,-0.081 1.8457,-2.2794 1.8457,-2.2793 v -3.4347 -3.4346 l -2.4546,-2.4546 -2.4545,-2.4545 h -2.1112 -2.1112 l -2.1843,1.1633 -2.1842,1.1634 -1.2182,1.5866 -1.2182,1.5867 -0.032,2.3157 -0.032,2.3158 0.9567,1.7876 0.9567,1.7877 -12.0519,12.8582 -12.0519,12.8582 -3.6548,1.2734 -3.6548,1.2733 -0.1361,0.015 -0.1361,0.015 -1.6731,3.5258 -1.6731,3.5259 0.6183,1.948 0.6183,1.9481 2.5757,2.0261 2.5758,2.0261 h 1.9148 1.9148 l 2.8291,-1.463 z m -5.4284,-4.3023 -1,-0.7346 v -2 -2 h 2.4849 2.485 l 0.3621,1.8801 0.3621,1.8802 -1.3484,0.8545 -1.3484,0.8545 h -0.5 -0.5 l -1,-0.7347 z m 2.5,-3.2346 v -1 h -0.441 -0.441 l -0.618,1 -0.6181,1 h 1.059 1.0591 z m 29.2291,-38.1709 -1.2291,-1.2291 v -1.2327 -1.2326 l 2.1006,-0.6667 2.1007,-0.6667 0.9931,0.9931 0.9931,0.9931 -0.3552,1.8448 -0.3553,1.8447 -1.5093,0.2907 -1.5094,0.2906 z m 285.0208,17.3976 1.75,-1.5367 v -3.845 -3.845 l -2,-2 -2,-2 h -3.3257 -3.3257 l -2.3486,2.5 -2.3486,2.5 h -46.2469 -46.2469 l -16.2744,-17 -16.2744,-17 h -8.1819 -8.182 l -1.2902,-1.5546 -1.2902,-1.5546 -1.8094,-0.9684 -1.8094,-0.9684 -3.4423,1.4383 -3.4424,1.4383 -1.1156,2.0847 -1.1157,2.0847 0.9946,1.8583 0.9945,1.8584 2.5055,1.6416 2.5054,1.6417 h 2.8802 2.8802 l 1.81,-2 1.8099,-2 h 7.2019 7.2019 l 16.1663,16.5 16.1662,16.5 h 46.8619 46.8618 l 1.6733,2.5537 1.6733,2.5538 2.1917,0.8735 2.1917,0.8735 2,-0.5455 2,-0.5456 z m -7.2888,-3.7735 -1.1849,-1.4278 0.6088,-1.5866 0.6089,-1.5867 1.753,0.3342 1.753,0.3341 0.3029,2.1125 0.3028,2.1125 -1.4797,0.5678 -1.4798,0.5679 z m -153.7111,459.87994 -1.25,-0.5 v -2.4166 -2.4167 h 2.5664 2.5664 l -0.3164,2.6729 -0.3164,2.6729 -1,0.2437 -1,0.2438 z m -42.25,-17.8333 v -0.5 h 0.5 0.5 v 0.5 0.5 h -0.5 -0.5 z m 1.5686,-1.4242 -1.7414,-1.9242 1.7532,0.2573 1.7533,0.2574 0.2446,1.6668 0.2447,1.6669 h -0.2565 -0.2566 z m 1.4314,-0.5758 v -0.5 h -0.5 -0.5 v 0.5 0.5 h 0.5 0.5 z m 132.3053,-0.1466 -0.5709,-1.4878 1.2042,-1.1828 1.2042,-1.1828 -0.1898,1 -0.1899,1 0.1184,0.8724 0.1185,0.8725 1.6153,-1.3406 1.6153,-1.3406 -0.3653,1.8737 -0.3653,1.8736 -1.8119,0.2651 -1.8119,0.2651 z m 1.6947,0.1466 v -0.5 h -0.5 -0.5 v 0.5 0.5 h 0.5 0.5 z m 2,0 v -0.5 h -0.5 -0.5 v 0.5 0.5 h 0.5 0.5 z m -115.2674,-14.4993 -1.7326,-2.0236 v -0.4885 -0.4886 h 1.9409 1.941 l 0.4339,0.75 0.4339,0.75 -0.6422,1.7622 -0.6422,1.7621 z m -45.3974,-0.5693 -0.6008,-1.5658 1.0266,-1.0266 1.0265,-1.0266 1.8562,0.3575 1.8563,0.3575 v 1.8866 1.8867 l -2.282,0.3482 -2.2819,0.3483 z m -45.1836,-7.3165 -1.3484,-0.8546 0.3598,-1.8686 0.3599,-1.8687 1.8448,-0.3553 1.8447,-0.3553 0.9864,0.9865 0.9864,0.9864 -1.1278,2.1073 -1.1278,2.1074 -0.7148,-0.015 -0.7148,-0.015 -1.3484,-0.8545 z m 138.4041,-0.025 -0.5622,-0.9097 0.6102,-1.5903 0.6102,-1.5902 h 2.393 2.3931 v 2.5 2.5 h -2.441 -2.441 z m 22.7776,-0.7569 0.6667,-0.6666 0.6666,0.6666 0.6667,0.6667 h -1.3333 -1.3334 z m -139.5833,-6.9956 1.25,-0.5044 v -1.3576 -1.3577 l 0.75,-0.4635 0.75,-0.4635 v 2.4045 2.4045 l -2,-0.079 -2,-0.079 1.25,-0.5044 z m -0.75,-2.8374 v -0.5 h 0.5 0.5 v 0.5 0.5 h -0.5 -0.5 z m 266.9999,-4 v -0.5 h 0.5 0.5 v 0.5 0.5 h -0.5 -0.5 z m -142.9999,-8 v -0.5 h 0.5 0.5 v 0.5 0.5 h -0.5 -0.5 z m -71.6373,-30.9971 -0.6283,-1.6373 1.0266,-1.0266 1.0265,-1.0266 1.8562,0.3575 1.8563,0.3575 v 1.9863 1.9863 l -2.2545,0.3201 -2.2545,0.3202 z m 151.2015,-11.796 0.6828,-1.7932 0.5598,0.5598 0.5598,0.5598 -1.2426,1.2334 -1.2425,1.2333 z m -107.0642,-1.2964 -3,-0.4226 -6,-1.0443 -6,-1.0443 -11,-3.56575 -11,-3.5659 -9,-4.2189 -9,-4.2188 -6.9069,-4.2502 -6.9069,-4.2502 -6.5931,-4.9759 -6.5931,-4.9758 -8.3549,-8.0663 -8.3549,-8.0664 -7.9221,-10.6225 -7.922,-10.6226 -5.4613,-11.1319 -5.4613,-11.1318 -3.4295,-10.3682 -3.4295,-10.3681 -1.5908,-9.4755 -1.5907,-9.4756 -0.6279,-11.0244 -0.6279,-11.0244 1.1934,-10.49999 1.1935,-10.5 2.5447,-11.4803 2.5448,-11.4804 2.985,-7.5196 2.985,-7.5197 4.9564,-9.6536 4.9563,-9.6535 7.5959,-10.3465 7.5959,-10.3464 9.6109,-9.5547 9.611,-9.5547 7,-5.1928 7,-5.1929 14,-6.9906 14,-6.9905 8.6533,-2.4515 8.6534,-2.4515 7.7866,-1.6084 7.7865,-1.6083 10.8039,-1.0088 10.8039,-1.0087 11.6506,1.0842 11.6506,1.0842 9.282,2.011 9.2819,2.011 8.6326,2.918 8.6326,2.918 9.191,4.6271 9.1911,4.6271 8.2322,5.468 8.2322,5.4681 11.1069,10.6431 11.1069,10.6431 7.7646,10.3412 7.7645,10.3412 5.5532,11.214 5.5532,11.2141 3.0867,8.8115 3.0867,8.8116 2.2,10.1884 2.2,10.1885 0.039,20.49999 0.039,20.4999 -1.7952,9 -1.7952,9 -1.5609,5.4298 -1.561,5.4299 -3.9664,9.5303 -3.9664,9.5304 -2.5437,5.0197 -2.5437,5.0198 -6.5267,9.8348 -6.5267,9.8348 -8.4179,9.4367 -8.4179,9.4368 -10.5547,7.9248 -10.5547,7.9249 -11.6173,5.9873 -11.6173,5.9873 -10.5,3.4953 -10.5,3.4954 -7.5,1.65015 -7.5,1.6502 -19,0.3573 -19,0.3574 -3,-0.4226 z m -224.5,-42.37525 v -1.9648 l 2.0148,-1.0783 2.0148,-1.0783 0.5922,1.5431 0.5921,1.5431 -0.5756,1.5 -0.5756,1.5 h -2.0314 -2.0313 z m 400.6666,-39.7019 -0.6667,-0.6666 v -0.8334 -0.8333 h 1.5 1.5 v 1.5 1.5 h -0.8333 -0.8334 z m -332.9166,-17.7274 -1.75,-1.3264 v -1.0328 -1.0327 l 1.5,-0.5756 1.5,-0.5756 1.5528,0.5959 1.5529,0.5959 -0.3029,2.0443 -0.3028,2.0444 -1,0.2945 -1,0.2945 z m -0.5209,-78.79329 0.3959,-1.1875 1.1875,-0.3959 1.1875,-0.3958 v 1.5833 1.5834 h -1.5834 -1.5833 z m 6.7108,-4.0135 -2.522,-3.1324 h -3.2627 -3.2628 l 5.8038,-6.0081 5.8038,-6.0082 2,-1.7391 2,-1.7391 0.2229,0.2202 0.2228,0.2201 -1.0998,3.9438 -1.0999,3.9438 -1.1421,6.7157 -1.142,6.7157 z m -100.3954,-4.8366 0.6362,-4.4624 1.4818,-8.9889 1.4819,-8.9889 0.4278,-0.4278 0.4278,-0.4278 v 1.5941 1.5941 l 2.6348,2.0726 2.6349,2.0726 h 3.3651 3.3652 l 2,-2 2,-2 v -2.5406 -2.5405 l 12.0936,-11.7284 12.0937,-11.7283 -0.04,-21.4811 -0.04,-21.4811 2.946,-2.6937 2.946,-2.6936 v -3.4838 -3.4838 l -2.6348,-2.0726 -2.6349,-2.0725 h -2.1426 -2.1426 l -2.3439,1.6417 -2.3439,1.6417 3.7203,-5.8917 3.7204,-5.8917 3.151,-4.7243 3.151,-4.7242 0.6287,-0.026 0.6287,-0.026 1.1326,2.75 1.1326,2.75 0.966,12.5 0.9661,12.5 0.023,22.1605 0.023,22.1604 -27.5679,27.3396 -27.5678,27.3395 -0.4779,0.4625 -0.478,0.4624 0.6361,-4.4624 z m 11.1501,-22.7224 -1.8053,-0.408 0.3836,-1.166 0.3837,-1.166 2.1717,-0.3196 2.1717,-0.3195 v 1.5105 1.5105 l -0.75,0.3831 -0.75,0.3831 z m -5.6946,-7.4964 v -1.0206 l 3.0193,-10.4493 3.0193,-10.4493 3.5224,-9.1206 3.5224,-9.1206 0.407,-0.407 0.407,-0.407 2.5197,2.8654 2.5197,2.8654 0.032,4.0756 0.032,4.0757 -2.5,2.3487 -2.5,2.3486 v 2.769 2.7689 l 2.2225,1.5568 2.2225,1.5567 h 1.6225 1.6225 l 1.7743,-1.9606 1.7742,-1.9606 -0.697,-3.2894 -0.697,-3.2894 -0.5107,-5.1786 -0.5107,-5.1786 2.9673,-1.5345 2.9672,-1.5344 0.6212,-1.6187 0.6212,-1.6188 v -2.8457 -2.8456 l -2.7386,-2.1541 -2.7385,-2.1542 -3.2615,0.3808 -3.2614,0.3808 v -0.8868 -0.8867 l 3.6823,-6.6625 3.6823,-6.6624 2.3177,-3.4822 2.3177,-3.4821 v 2.6554 2.6554 l 2.5,2.9711 2.5,2.9711 v 20.5237 20.5238 l -10.6167,9.9502 -10.6167,9.9503 -3.254,-0.7339 -3.2541,-0.7339 -3.6293,1.2477 -3.6292,1.2477 z m 505.5665,-9.5104 -0.5492,-0.5492 1.2413,-1.534 1.2413,-1.534 -1.25,0.751 -1.25,0.751 v -1.1286 -1.1285 l 2.1595,0.3195 2.1595,0.3196 0.2388,1.6599 0.2388,1.66 -1.8404,0.4813 -1.8404,0.4812 z m 1.4334,-0.7332 v -0.5 h -0.5 -0.5 v 0.5 0.5 h 0.5 0.5 z m -387.9999,-20 v -0.5 h 0.5 0.5 v 0.5 0.5 h -0.5 -0.5 z m -3,-2.5 v -1.3334 l 0.6666,0.6667 0.6667,0.6667 -0.6667,0.6666 -0.6666,0.6667 z m -94.021,-8.8203 -1.5211,-0.6797 0.1461,-1.25 0.146,-1.25 0.1403,-0.75 0.1403,-0.75 0.9694,1.5 0.9693,1.5 0.015,-1.3091 0.015,-1.309 1.0486,0.6481 1.0485,0.648 -1.0398,1.253 -1.0399,1.253 0.658,0.658 0.658,0.658 -0.4167,-0.07 -0.4167,-0.07 -1.521,-0.6798 z m 97.021,-11.1207 v -0.941 l 0.9885,-0.611 0.9885,-0.6109 -0.5955,1.5519 -0.5955,1.552 h -0.393 -0.393 z m 20,-1.1181 v -1.059 l 1,0.6181 1,0.618 v 0.441 0.441 h -1 -1 z m -101.4688,-15.2341 -0.7783,-1.7931 0.6235,-0.6235 0.6236,-0.6236 0.5884,0.5884 0.5883,0.5884 -0.4336,1.8283 -0.4336,1.8283 z m -2.5312,-0.2068 v -0.5 h 0.5 0.5 v 0.5 0.5 h -0.5 -0.5 z m 450.9999,-7.5591 v -2.059 l 0.9563,0.5911 0.9564,0.591 -0.5634,1.468 -0.5633,1.468 h -0.393 -0.393 z m -18,-18.399 v -2.6047 l 1.5672,-0.6014 1.5672,-0.6014 1.1603,1.1603 1.1603,1.1603 -1.0847,1.7225 -1.0847,1.7225 -1.6428,0.3233 -1.6428,0.3233 z m 4,-1.0419 v -1.5 h -1.5 -1.5 v 1.5 1.5 h 1.5 1.5 z m -409.7172,-1.4028 0.2173,-3.0933 h 0.2148 0.2148 l 1.0142,1.895 1.0141,1.895 -1.4462,1.2003 -1.4462,1.2002 0.2172,-3.0933 z m -8.533,-0.2174 -1.7497,-0.9792 v -0.8337 -0.8337 l 1.999,-0.5227 1.999,-0.5228 0.5551,0.8982 0.5551,0.8982 -0.8044,1.4374 -0.8044,1.4374 z m 389.8636,-6.5804 -4.8866,-5.3951 0.2006,-9.1258 0.2006,-9.1258 1.936,-2.4612 1.936,-2.4613 v -2.0809 -2.081 l 5.4791,5.411 5.479,5.411 -1.979,1.8438 -1.9791,1.8438 -0.1,9.711 -0.1,9.7111 -0.6503,2.0973 -0.6503,2.0973 -4.8866,-5.3952 z m -130.6133,-2.6925 v -2.393 l 1.5902,-0.6102 1.5902,-0.6102 0.9098,0.5622 0.9098,0.5623 v 2.441 2.441 h -2.5 -2.5 z m -82,-5.6069 v -2 h 1.5 1.5 v 2 2 h -1.5 -1.5 z m 186.343,-36.2538 -0.5688,-0.9205 0.9456,-0.9457 0.9457,-0.9456 1.604,0.6155 1.6041,0.6156 -0.4799,1.2505 -0.4799,1.2506 h -1.5009 -1.501 z m -280.343,-3.6238 v -0.8776 l 1.4109,-1.171 1.411,-1.171 0.648,1.0486 0.6481,1.0486 -0.618,1 -0.6181,1 h -1.441 -1.4409 z m 250.1465,-2.4718 3.6466,-3.4881 3.9593,0.5311 3.9592,0.531 2.192,-1.1731 2.192,-1.1731 0.9274,-2.4392 0.9274,-2.4392 h 0.829 0.8289 l 4.6958,2.9779 4.6958,2.978 -0.033,0.772 -0.033,0.7721 -1.9881,2.3871 -1.9881,2.3872 -14.2286,0.4321 -14.2287,0.4322 3.6467,-3.488 z m -76.7781,-11.4603 -3.1316,-3.7737 -12.7249,-13.2083 -12.725,-13.2083 h -39.8345 -39.8344 l -0.5892,-0.9534 -0.5892,-0.953299 3.8817,-1.0453 3.8818,-1.0452 12.8984,-2.0753 12.8985,-2.0753 22.6321,-0.5595 22.6322,-0.5595 3.442,0.6457 3.4421,0.6457 15.9258,16.021099 15.9258,16.021 10.5553,-0.1511 10.5553,-0.1512 3.2347,3.2348 3.2348,3.2347 3.2064,-0.6413 3.2065,-0.6413 1.9201,-1.9201 1.9202,-1.9201 v -3.0637 -3.0637 l -2.341,-2.4919 -2.341,-2.4918 h -2.3753 -2.3754 l -2.86,1.4789 -2.86,1.479 -0.3403,1.0016 -0.3403,1.0016 -10.034,0.6556 -10.0339,0.6556 -12.7901,-13.3862 -12.7902,-13.386099 2.4361,-0.3032 2.4362,-0.3031 12.8879,2.592 12.888,2.592 11,3.032199 11,3.0321 11.4999,4.5212 11.5,4.5212 2.3621,0.9257 2.3622,0.9256 -2.6122,2.0547 -2.6121,2.0547 v 2.8724 2.8725 l -4.75,4.5318 -4.75,4.5318 -23.4999,0.01 -23.5,0.01 -3.1316,-3.7737 z m 27.6316,-16.1903 2,-2 v -1.953 -1.9529 l -1.1103,-2.4368 -1.1103,-2.4368 -2.2891,-1.043 -2.289,-1.0429 -2.1407,0.5598 -2.1407,0.5598 -1.46,2.8232 -1.4599,2.8232 v 1.5951 1.5952 l 2.4545,2.4545 2.4545,2.4546 h 2.5455 2.5455 z m 57.7684,17.8315 1.0565,-1.0565 1.3117,0.4372 1.3117,0.4372 -2.3682,0.6193 -2.3683,0.6194 z m -182.7684,-5.3315 v -0.5 h 0.5 0.5 v 0.5 0.5 h -0.5 -0.5 z m 162.345,-3.0432 -0.5922,-1.5431 0.4966,-0.4965 0.4965,-0.4966 0.5334,2.0397 0.5334,2.0397 h -0.4378 -0.4378 z m -28.916,-1.2068 0.252,-1.75 2.1595,-0.3196 2.1595,-0.3195 v 2.0695 2.0696 h -2.4116 -2.4115 z m -152.429,-18.75 v -0.5 h 0.5 0.5 v 0.5 0.5 h -0.5 -0.5 z m 0,-2 v -0.5 h 0.5 0.5 v 0.5 0.5 h -0.5 -0.5 z m 783.7577,479.15134 0.2578,-60.8484 -118.7578,0.2084 -118.7578,0.2084 -14.25,-0.1099 -14.25,-0.11 V 303.83353 85.806131 l -49.75,0.056 -49.75,0.056 -13.8299,0.6156 -13.8299,0.6157 0.2259,277.105589 0.226,277.10555 0.9483,1.2161 0.9482,1.2161 195.1557,-0.2161 195.1557,-0.2161 0.2578,-60.8485 z m -378.7972,-87.15145 -0.038,-134.9999 33.5551,-32.99999 33.555,-33 -0.016,-9.8402 -0.016,-9.8401 -12.0192,-12.2585 -12.0192,-12.2586 1.513,-2.9013 1.5131,-2.9013 0.01,-19.5757 0.01,-19.5757 2.5,-2.3486 2.5,-2.3487 v -3.1707 -3.1707 l -2.0129,-1.8216 -2.0129,-1.8217 h -2.9742 -2.9742 l -2.0129,1.8217 -2.0129,1.8216 v 3.3905 3.3905 l 2.5196,2.5195 2.5195,2.5196 -0.1336,18.8998 -0.1336,18.8999 -1.136,1.5088 -1.1359,1.5088 -4.25,-3.5566 -4.25,-3.5566 v -9.2428 -9.2427 l 2.5,-2.3486 2.5,-2.3487 v -2.7489 -2.749 l -2.5,-2.9711 -2.5,-2.9711 v -14.6642 -14.6643 l 3.2334,-4.0235 3.2334,-4.0236 3.5166,0.4349 3.5166,0.4349 2.1626,-0.7948 2.1626,-0.7947 -0.5024,-3.808 -0.5024,-3.8079 3.1514,-1.843 3.1515,-1.8429 2.3239,0.5832 2.324,0.5833 1.1758,-1.4168 1.1758,-1.4168 0.4603,-7.9709 0.4604,-7.971 -2.6107,-3.1026 -2.6106,-3.1025 h -1.7762 -1.7763 l -2.6348,2.0725 -2.6349,2.0726 v 2.9729 2.9729 l 2.5,2.5 2.5,2.5 v 1.8381 1.8382 l -4.1089,3.7122 -4.1089,3.7121 -2.4656,-0.4714 -2.4656,-0.4713 -2.7429,2.6256 -2.7429,2.6256 -3.6826,5.2523 -3.6826,5.2523 v 16.4522 16.4522 l -2.5,2.5 -2.5,2.5 v 2.9566 2.9566 l 2.75,2.3389 2.75,2.3389 -0.2037,9.5977 -0.2037,9.5978 17.4537,17.8375 17.4537,17.8376 v 8.1862 8.1862 l -30.8961,30.4623 -30.8961,30.46229 -0.5929,-3.58379 -0.5929,-3.5838 -0.011,-2.6074 -0.011,-2.6073 10.25,-9.9563 10.25,-9.9562 15.5,-14.8709 15.5,-14.8708 1.3535,-1.8824 1.3535,-1.8824 -0.659,-4.3946 -0.659,-4.3945 -12.4271,-12.2886 -12.4271,-12.2886 -2.7674,-1.1533 -2.7674,-1.1533 -0.6363,0.392 -0.6363,0.3921 -0.4977,-1.9031 -0.4976,-1.9031 -3.1891,-1.6491 -3.189,-1.6491 -2.9148,0.6402 -2.9148,0.6402 -2.0122,2.5581 -2.0122,2.5581 v 2.2884 2.2884 l 2.5889,3.0767 2.5889,3.0768 h 3.3053 3.3054 l 3.2115,-3 3.2115,-3 h 1.5932 1.5932 l 11.301,11.7281 11.3011,11.7281 v 4.1158 4.1158 l -10.25,9.9971 -10.25,9.9971 -11.8923,11.2 -11.8923,11.1999 -2.0109,1.0762 -2.0108,1.0762 0.6444,-5.3672 0.6445,-5.3671 0.01,-111.25 0.01,-111.249999 h 4.5726 4.5726 l -2.0726,2.634799 -2.0726,2.6349 v 2.2543 2.2544 l 1.75,2.1078 1.75,2.1077 3.068,0.5916 3.068,0.5916 3.0763,-2.5885 3.0764,-2.5886 h 24.5302 24.5302 l 6.1509,6 6.1509,6 h 2.5015 2.5014 l 2.9231,-2.9231 2.9231,-2.9231 v -2.1538 -2.1539 l -2.9231,-2.9231 -2.9231,-2.923 h -1.6538 -1.6538 l -2.8136,2.8135 -2.8136,2.8136 -3.3595,-2.7866 -3.3595,-2.7867 -26.25,-0.027 -26.261,-0.027 v -1.0147 -1.0147 l -3.25,-1.9816 -3.25,-1.981599 h 21.0884 21.0884 l 22.6616,-0.6595 22.6616,-0.6595 v 53.027599 53.0276 l -3.5,-3.3009 -3.5,-3.301 v -9.9902 -9.9902 l 3,-3 3,-3 v -1.6427 -1.6426 l -1.0296,-1.924 -1.0297,-1.9239 -2.9141,-1.5069 -2.9142,-1.507 -2.4553,0.9335 -2.4553,0.9335 -1.6009,2.2856 -1.6009,2.2856 v 2.0905 2.0904 l 3,2.8741 3,2.8742 v 10.1258 10.1259 l -3,2.8741 -3,2.8742 v 2.4448 2.4449 l 3.5,3.3009 3.5,3.3009 -0.1,38.8172 -0.1,38.8171 -0.6503,2.178 -0.6503,2.178 -30.25,30.5046 -30.25,30.50459 v 3.9325 3.9326 l 2,2.5426 2,2.5426 v 16.4694 16.4694 l 28.8813,27.7864 28.8812,27.7863 0.46,25.0865 0.46,25.0865 -2.8413,2.3225 -2.8412,2.32245 v 2.9275 2.9275 l 2,2 2,2 h 2.8257 2.8257 l 2.1743,-2.3145 2.1743,-2.3144 v -2.5306 -2.5305 l -2,-1.81 -2,-1.80995 v -26.1084 -26.1085 l -29,-27.9214 -29,-27.9215 v -16.3151 -16.3151 l 2,-2 2,-2 v -3.3114 -3.3114 l -2.1296,-2.2859 -2.1297,-2.2859 27.6782,-27.65269 27.6782,-27.6527 0.9361,-1.5 0.9362,-1.5 0.015,-41.75 0.015,-41.75 h 1.0147 1.0147 l 1.9816,-3.25 1.9815,-3.25 v 67.143 67.1431 l -1.5818,0.6069 -1.5818,0.607 h -2.9915 -2.9915 l 0.3586,1.75 0.3587,1.75 3.619,-0.2813 3.619,-0.2814 0.6451,9.28139 0.6452,9.2813 -0.2995,85.7502 -0.2995,85.75015 6.3226,-2e-4 6.3226,-2e-4 -2.0726,2.6349 -2.0726,2.6348 v 2.4421 2.442 l 2.9231,2.9231 2.9231,2.9231 h 2.6538 2.6538 l 2.9231,-2.9231 2.9231,-2.9231 v -2.1538 -2.1538 l -2.9231,-2.9231 -2.9231,-2.9231 h 9.1456 9.1456 l -2.2943,1.607 -2.2943,1.607 -0.81,2.143 -0.8101,2.143 1.0452,2 1.0452,2 1.5866,1.2182 1.5867,1.2182 2.7977,0.032 2.7978,0.032 2.3169,-2.5 2.3169,-2.5 h 31.7531 31.753 l 38.387,38.5 38.387,38.5 h 27.9184 27.9184 l 3.102,3.1021 3.1021,3.1021 2.7249,-0.6398 2.7248,-0.6397 2.25,-2.5181 2.25,-2.5181 -0.032,-2.6943 -0.032,-2.6942 -1.2997,-1.7107 -1.2997,-1.7107 -2.6311,-1.0003 -2.6311,-1.0003 -2.894,1.0088 -2.8941,1.0089 -1.3123,2.4521 -1.3124,2.4522 h -27.2247 -27.2247 l -38.4834,-39 -38.4833,-39 h -32.2152 -32.2152 l -2.5426,-2 -2.5426,-2 h 89.1348 89.1349 v 4.7773 4.7773 l -3,2.6325 -3,2.6324 v 3.9554 3.9554 l 2.0726,2.6348 2.0726,2.6349 h 3.3716 3.3717 l 2.6788,-2.3042 2.6788,-2.3042 0.099,-3.9458 0.099,-3.9458 -2.3809,-3.2107 -2.381,-3.2108 -0.6837,0.4226 -0.6837,0.4226 -0.1756,-4.9619 -0.1756,-4.9618 h 4.0183 4.0184 v 2.118 2.118 l 3,3.4168 3,3.4168 v 1.4652 1.4652 h 1.1195 1.1196 l -0.5356,7.75 -0.5355,7.75 -5.1537,4.75 -5.1538,4.75 h -4.7662 -4.7662 l -6.6323,-6.8699 -6.6324,-6.8699 0.5784,-4.8834 0.5783,-4.8834 -1.86,-2.2437 -1.8601,-2.2437 -3.0868,-0.5954 -3.0869,-0.5953 -2.8631,2.4627 -2.8632,2.4628 v 3.6518 3.6518 l 1.9599,1.96 1.9599,1.9599 3.0947,0.3388 3.0947,0.3387 7.8954,8.5821 7.8954,8.582 6.6319,0.097 6.6319,0.097 4.8681,-4.4893 4.8681,-4.4894 12.75,-0.011 12.75,-0.011 v 14.5 14.5 h -8.6056 -8.6057 l -2.9711,-2.5 -2.9711,-2.5 h -2.3465 -2.3465 l -2.9711,2.5 -2.9711,2.5 h -16.3123 -16.3123 l -25.0389,-24.75 -25.0389,-24.75 -0.1925,-3.7 -0.1925,-3.6999 -1.0408,-1.9449 -1.0409,-1.9448 -2.7763,-0.9679 -2.7763,-0.9678 -2.2593,0.8358 -2.2594,0.8358 -0.9854,2.592 -0.9855,2.5919 v 2.0118 2.0118 l 3.0333,3.0333 3.0333,3.0333 2.7167,-0.5335 2.7167,-0.5336 22.4256,22.1733 22.4255,22.1734 3.0085,3.25 3.0084,3.25 h 17.864 17.8639 l 2.2854,2.6569 2.2854,2.6569 3.413,-0.097 3.4131,-0.097 2.0412,-2.5599 2.0411,-2.5599 h 8.7125 8.7124 v 12.9685 12.9685 l -42.25,0.2815 -42.25,0.2815 -2.2786,-0.3721 -2.2787,-0.372 0.5242,-1.6517 0.5242,-1.6516 -4.1053,-4.9763 -4.1053,-4.9763 -28.3903,-28.7941 -28.3902,-28.7942 v -2.8833 -2.8832 l -2.6349,-2.0726 -2.6348,-2.0726 h -2.7926 -2.7925 l -2.0726,2.6349 -2.0726,2.6348 v 1.9421 1.942 l 2.9439,2.9439 2.9438,2.9439 3.8672,-0.6184 3.8672,-0.6184 29.5454,30.395 29.5453,30.395 1.2362,2.31 1.2363,2.3099 -1.143,1.1427 -1.1431,1.1426 -77.1996,-0.2764 -77.1996,-0.2764 -2.75,0.026 -2.75,0.026 v -1.3749 -1.3748 l -37.2747,-37.8752 -37.2748,-37.8751 -12.6943,-13 -12.6944,-13 -0.031,-78.21595 -0.031,-78.216 7.75,-9.2461 7.75,-9.24609 26.25,-26.6915 26.25,-26.6915 -0.01,-13.3464 -0.01,-13.3464 -10.4624,-11 -10.4625,-11 -0.03,-33.0619 -0.031,-33.0619 3,-2.218 3,-2.218 v -3.0179 -3.0178 l -2.646,-2.4522 -2.646,-2.4523 h -2.854 -2.854 l -2.1126,2.1126 -2.1125,2.1126 0.5821,3.6374 0.5822,3.6374 2.0304,1.6603 2.0304,1.6603 v 34.4412 34.4411 l 10,10.5525 10,10.5524 v 12.356 12.356 l -19.0842,18.9901 -19.0842,18.9901 -12.1547,13.5 -12.1547,13.49999 -2.7611,2.827 -2.7611,2.8269 v 80.0432 80.04325 l 47.1342,47.3099 47.1341,47.3099 1.8593,2.8199 1.8592,2.8199 0.01,1.75 0.01,1.75 h -25.0314 -25.0314 l -0.4724,-1.25 -0.4724,-1.25 0.8156,-8.3716 0.8157,-8.3715 -1.6972,-2.096 -1.6973,-2.096 -1.4502,1.2035 -1.4502,1.2036 0.1922,9.6004 0.1922,9.6004 -1.1066,0.3735 -1.1066,0.3735 -23.2508,0.2901 -23.2508,0.2901 -0.038,-134.99995 z m 127.5595,128.48045 3.0751,-2.9805 h 16.6527 16.6527 l 0.7997,1.3387 0.7997,1.3387 1.9242,1.0485 1.9242,1.0486 2.8318,-0.9872 2.8319,-0.9872 0.6023,-2.4 0.6024,-2.4001 -0.5844,-2.3286 -0.5844,-2.3285 -2.4346,-1.1093 -2.4345,-1.1092 -3.8394,2.1738 -3.8395,2.1738 -16.0897,-0.1212 -16.0897,-0.1211 -2.6148,-2.6149 -2.6149,-2.6148 h -3.3905 -3.3904 l -1.905,2.105 -1.905,2.105 v 4.9756 4.9756 l 2,1.4815 2,1.4815 2.9725,-0.5816 2.9725,-0.5816 z m -8.5201,-3.8581 v -1.8775 l 1.5,-1.2449 1.5,-1.2449 1.5,1.2449 1.5,1.2449 v 0.8775 0.8776 l -0.75,-0.1184 -0.75,-0.1184 -1.5,0.1887 -1.5,0.1887 2,0.8594 2,0.8594 -2.75,0.07 -2.75,0.07 v -1.8776 z m 82.8064,4.0033 2.6936,-2.8743 15.6586,-0.5375 15.6586,-0.5374 2.2657,2.4118 2.2657,2.4117 h 3.3257 3.3257 l 2,-2 2,-2 v -3.345 -3.345 l -1.8995,-1.719 -1.8995,-1.7191 -3.2671,-0.093 -3.2672,-0.093 -2.2854,2.6569 -2.2854,2.6569 h -16.1536 -16.1536 l -2.9711,-2.5 -2.9711,-2.5 h -2.4687 -2.4687 l -2.4546,2.4545 -2.4545,2.4546 v 3.4729 3.4728 l 2.6349,2.0726 2.6348,2.0726 h 2.9215 2.9215 l 2.6937,-2.8743 z m -8.4264,-3.5778 -0.5572,-1.4521 0.6476,-1.0479 0.6476,-1.0479 h 1.5635 1.5634 l -1.3082,1.5762 -1.3081,1.5762 1.4357,0.9085 1.4357,0.9085 -1.7814,0.015 -1.7814,0.015 -0.5572,-1.4521 z m 48.8824,-2.7146 -0.1381,-1.8333 h 1.3757 1.3757 l -0.1381,1.8333 -0.1381,1.8334 h -1.0995 -1.0995 z m -208.3905,6.0615 3.1703,-1.1052 0.9789,-1.829 0.9789,-1.8291 v -2.6427 -2.6426 l -3,-3 -3,-3 v -13.9992 -13.9991 l 2.9262,2.326 2.9262,2.3261 1.2147,2.7972 1.2146,2.7971 2.7759,1.4355 2.7759,1.4354 0.6567,2.9904 0.6568,2.9903 3.0032,2.5271 3.0033,2.527 h 0.9938 0.9939 l 4.9294,4.1565 4.9294,4.1566 v 3.6974 3.6975 l 2.4523,2.646 2.4522,2.646 h 2.9589 2.9588 l 2.5889,-3.0767 2.5889,-3.0768 v -2.8506 -2.8507 l -2.7251,-2.1436 -2.7252,-2.1436 -4.1036,0.321 -4.1036,0.321 -7.5202,-7 -7.5202,-7 -1.7221,-2.6829 -1.7221,-2.683 1.071,-2.0013 1.0711,-2.0013 v -2.237 -2.237 l -1.655,-1.8288 -1.655,-1.8287 h -3.286 -3.286 l -0.6387,1.0335 -0.6387,1.0334 -10.2869,-10.2834 -10.2869,-10.2835 -0.7075,-3 -0.7076,-3 -2.1001,-2.25 -2.1002,-2.25 h -3.2149 -3.2149 l -2.3108,1.8712 -2.3108,1.8711 v 3.5791 3.5791 l 1.9254,2.1275 1.9253,2.1275 5.2384,-0.3277 5.2384,-0.3278 5.5363,5.4658 5.5362,5.4659 v 16.7072 16.7073 l -3,3 -3,3 v 2.6538 2.6538 l 2.9231,2.9231 2.9231,2.9231 h 0.9277 0.9277 z m -4.8613,-5.3821 -1.2344,-1.4872 0.6075,-1.5829 0.6074,-1.5829 2.2442,0.3202 2.2443,0.3201 0.3586,1.8802 0.3586,1.8801 -1.3484,0.8546 -1.3484,0.8545 -0.6276,0.015 -0.6275,0.015 -1.2343,-1.4873 z m 43.9894,0.4283 v -1.059 l -0.9309,0.5753 -0.9309,0.5753 -0.6874,-1.1122 -0.6874,-1.1123 1.6183,-1.6183 1.6183,-1.6184 v 1.2817 1.2817 l 2,-0.6348 2,-0.6348 v 1.3674 1.3674 l -1.2,1.2 -1.2,1.2 h -0.8 -0.8 z m -29,-35.441 v -0.5 h 0.5 0.5 v 0.5 0.5 h -0.5 -0.5 z m 2,0 v -0.5 h 0.5 0.5 v 0.5 0.5 h -0.5 -0.5 z m -36.8196,-26.75 0.3196,-2.25 h 1.3854 1.3855 l 0.8323,2.25 0.8324,2.25 h -2.5374 -2.5373 z m 7.747,64.6151 2.0726,-2.6348 v -3.2926 -3.2925 l -2.3167,-1.8226 -2.3167,-1.8226 -0.2598,-11.2647 -0.2598,-11.2648 2.5765,-3.062 2.5765,-3.062 v -1.3414 -1.3415 l -0.6364,-1.6584 -0.6364,-1.6584 -2.3675,-0.9002 -2.3676,-0.9001 -2.52,1.1482 -2.5201,1.1482 -0.633,2.5223 -0.6331,2.5224 1.6571,2.8872 1.657,2.8873 v 11.1963 11.1962 l -3,2.6325 -3,2.6324 v 2.9554 2.9554 l 2.0726,2.6348 2.0726,2.6349 h 3.3548 3.3548 z m -7.2607,-3.0318 -0.6667,-0.6666 v -1.7264 -1.7263 l 1.25,-0.4597 1.25,-0.4597 1.25,0.436 1.25,0.4361 v 1.8096 1.8097 l -1.5818,0.607 -1.5818,0.607 h -0.2515 -0.2516 z m 223.5833,-11.4137 1.75,-2.1412 v -2.3074 -2.3074 l -0.6212,-1.6188 -0.6212,-1.6188 -2.94,-1.5203 -2.9401,-1.5204 -3.4464,1.1374 -3.4465,1.1375 -1.0275,1.9199 -1.0275,1.9199 -57.2148,-0.015 -57.2148,-0.015 -1,-0.7683 -1,-0.7683 -22.5,-22.9806 -22.5,-22.9806 -16.5,-16.7866 -16.5,-16.7866 0.3322,-64.64905 0.3322,-64.649 1.3728,-1.0502 1.3727,-1.0501 1.0452,-2.8155 1.0452,-2.8154 -1.1635,-2.1846 -1.1635,-2.1845 -1.5866,-1.2182 -1.5867,-1.2182 h -2 -2 l -1.5867,1.2182 -1.5866,1.2182 -1.1634,2.1843 -1.1633,2.1842 v 1.8914 1.8915 l 2.5,2.3486 2.5,2.3486 v 65.124 65.12405 l 40.75,41.596 40.75,41.5961 58.3488,0.1056 58.3488,0.1056 2.9215,3.1275 2.9216,3.1276 3.7297,-0.5971 3.7296,-0.5972 1.75,-2.1412 z m -8.7627,-3.9401 -0.6053,-0.9795 0.618,-1 0.618,-1 h 1.941 1.941 v 0.7595 0.7594 l -1.9536,1.2201 -1.9537,1.22 z m -9.5599,-11.6144 2.0726,-2.6348 v -2.7926 -2.7925 l -2.6349,-2.0726 -2.6348,-2.0726 h -1.9309 -1.9309 l -1.9821,1.0608 -1.9821,1.0608 -0.9274,2.4392 -0.9274,2.4392 h -47.3368 -47.3367 l -33.3135,-34.041 -33.3136,-34.041 0.064,-38.53725 0.064,-38.5372 2.5616,-2.374 2.5616,-2.374 v -3.0932 -3.0932 l -2.4545,-2.4546 -2.4546,-2.4545 h -2.5909 -2.5909 l -2.4546,2.4545 -2.4545,2.4546 v 2.8711 2.8712 l 2.5,2.3486 2.5,2.3486 0.012,40.0757 0.012,40.07565 35.2208,35.3147 35.2208,35.3148 48.3393,-0.207 48.3394,-0.2069 1.6422,1.6422 1.6422,1.6422 h 3.2131 3.2131 l 2.0726,-2.6349 z m -176.4274,-157.36505 -0.618,-1 h 1.059 1.059 v 1 1 h -0.441 -0.441 z m -1.5,-2.5 v -0.5 h 0.5 0.5 v 0.5 0.5 h -0.5 -0.5 z m 2,0 v -0.5 h 0.5 0.5 v 0.5 0.5 h -0.5 -0.5 z m 317.0818,161.49995 h 0.9182 l 2,-2 2,-2 v -3.1855 -3.1856 l -2.1743,-2.3144 -2.1743,-2.3145 h -3.2532 -3.2532 l -2.3225,2.8792 -2.3225,2.8793 -17.4562,0.5158 -17.4562,0.5159 -15.0438,-15.5478 -15.0438,-15.5477 0.3446,-4.8785 0.3446,-4.8784 -1.5372,-2.3461 -1.5372,-2.3461 -2.5779,-0.647 -2.5779,-0.647 -2.2295,1.1875 -2.2295,1.1876 -1.2182,1.5866 -1.2182,1.5867 -0.032,3.1942 -0.032,3.1943 2.25,2.5266 2.25,2.5267 2.7295,0.3269 2.7295,0.327 16.4163,16.7021 16.4163,16.7022 h 18.9972 18.9972 l 0.5848,1.524 0.5849,1.524 2.2721,0.9135 2.2722,0.9134 1.3318,-0.4374 1.3318,-0.4375 h 0.9182 z m -3.4434,-6.5 0.5756,-1.5 -1.357,-0.015 -1.357,-0.015 1.5,-0.9661 1.5,-0.966 1.218,1.6287 1.2179,1.6286 -0.5269,0.8527 -0.527,0.8527 h -1.4096 -1.4096 l 0.5756,-1.5 z m -81.2768,-38 -0.5756,-1.5 0.6025,-1.5701 0.6026,-1.5702 2.2442,0.3202 2.2443,0.3201 0.3328,1.7465 0.3329,1.7465 -1.5727,-0.6035 -1.5726,-0.6035 v 1.607 1.607 h -1.0314 -1.0314 z m -73.2749,31.2182 1.5866,-1.2182 1.1634,-2.1843 1.1633,-2.1842 v -1.6427 -1.6426 l -2.9231,-2.9231 -2.9231,-2.9231 h -2.1538 -2.1538 l -3,3 -3,3 -38.6731,0.036 -38.6731,0.036 -19.7186,-20.2863 -19.7186,-20.2863 -0.031,-30.14295 -0.031,-30.143 1.5452,-0.593 1.5451,-0.5929 1.4483,-3.4662 1.4483,-3.4662 -0.9488,-2.4956 -0.9488,-2.4955 -2.3783,-1.5583 -2.3782,-1.5583 -3.1875,1.1112 -3.1875,1.1112 -0.9789,1.829 -0.9789,1.8291 v 2.9108 2.9107 l 2,1.81 2,1.81 v 31.5865 31.58635 l 21.2413,21.2586 21.2413,21.2585 h 39.3767 39.3767 l 3.4168,3 3.4168,3 2.2152,-0.032 2.2152,-0.032 1.5867,-1.2182 z m -4.0867,-8.2182 v -0.5 h 0.5 0.5 v 0.5 0.5 h -0.5 -0.5 z m -129,-109.05895 v -1.559 l 1.0163,0.6281 1.0163,0.6281 -0.5753,0.9309 -0.5753,0.9309 h -0.441 -0.441 z m 3,-0.941 v -0.5 h 0.5 0.5 v 0.5 0.5 h -0.5 -0.5 z m 121.25,100.76705 1.75,-1.5771 v -2.6564 -2.6565 l -2.039,-2.1885 -2.0389,-2.1886 h -2.6563 -2.6564 l -2.8658,2.7456 -2.8658,2.7456 -32.1889,0.2785 -32.1889,0.2785 -14.9391,-14.3845 -14.9391,-14.3845 -0.4314,-17.41955 -0.4314,-17.4197 2.6256,-3.1203 2.6256,-3.1204 0.6066,-3.0333 0.6067,-3.0333 -2.5663,-2.5663 -2.5663,-2.5663 h -1.9106 -1.9106 l -2.6348,2.0726 -2.6349,2.0726 v 3.2925 3.2926 l 2,2.5426 2,2.5426 v 18.9101 18.91005 l 15.5597,15.4322 15.5597,15.4321 0.4256,0.4019 0.4255,0.4019 34.0335,-0.2097 34.0334,-0.2098 2.688,2.1144 2.688,2.1143 2.5433,-0.6344 2.5433,-0.6344 z m -110.6437,-78.68345 0.6077,-1.5836 h 0.9763 0.9764 l -0.3959,1.1875 -0.3958,1.1875 -1.1882,0.3961 -1.1882,0.396 z m -21.6063,36.41635 2,-2 v -2.8257 -2.82565 l -2.5,-2.3486 -2.5,-2.3486 v -25.1707 -25.1707 l 2.138,-1.905 2.138,-1.905 1.3555,-3.2022 1.3554,-3.2021 -0.9456,-2.4871 -0.9456,-2.487 -1.9821,-1.0608 -1.9821,-1.0608 h -1.9309 -1.9309 l -2.6348,2.0726 -2.6349,2.0726 v 3.2388 3.2389 l 2,2.1467 2,2.1468 v 26.3868 26.3868 l -1.9101,1.7286 -1.91,1.7286 -0.6142,2.44685 -0.6141,2.4469 1.1739,2.2295 1.1739,2.2295 1.1003,0.7347 1.1003,0.7347 2.75,0.015 2.75,0.015 2,-2 z m -6,-71.49995 v -0.5 h 0.5 0.5 v 0.5 0.5 h -0.5 -0.5 z m 3,0 v -0.5 h 0.5 0.5 v 0.5 0.5 h -0.5 -0.5 z m 39.1136,-3.5608 1.9821,-1.0608 0.9289,-2.4432 0.9289,-2.4431 -1.0872,-2.3862 -1.0872,-2.3862 -2.4251,-1.2979 -2.4252,-1.2978 -3.4752,1.2566 -3.4752,1.2567 -17.2644,-16.6445 -17.2644,-16.6444 0.1484,-21.0281 0.1485,-21.0281 9.357,-9.39609 9.357,-9.396 h 4.2697 4.2698 v 3.6272 3.6272 l 5.1864,-0.4983 5.1865,-0.4984 1.8135,-2.2397 1.8136,-2.2396 v -3.6892 -3.6892 l -1.2,-1.2 -1.2,-1.2 -3.05,0.01 -3.05,0.01 -2.9529,1.9464 -2.9528,1.9465 -4.3834,-0.6008 -4.3833,-0.6008 -11.4138,11.3814 -11.4138,11.38149 v 22.5162 22.5163 l 17.5867,16.9131 17.5867,16.9131 2.5591,4.0869 2.5591,4.0869 1.1005,0.7347 1.1005,0.7347 2.3157,0.015 2.3158,0.015 1.9821,-1.0608 z m -10.8636,-103.65739 -1.25,-0.4484 v -1.9167 -1.9166 h 2 2 v 1.9409 1.941 l -0.75,0.4241 -0.75,0.4241 z m 10.8269,78.79509 2.9231,-2.9231 v -2.586 -2.586 l -3.1121,-3.2409 -3.1122,-3.2409 0.4377,-10 0.4376,-10 3.1745,-3.1731 3.1745,-3.1731 v -1.0706 -1.0707 l -3.75,-2.7562 -3.75,-2.7563 -0.2928,-2.5303 -0.2928,-2.5303 3.0428,-2.2496 3.0428,-2.2496 v -2.9134 -2.9133 l -2.2225,-1.5567 -2.2225,-1.55669 h -2.2049 -2.2049 l -1.8226,2.31599 -1.8226,2.316 -6.5,0.2534 -6.5,0.2534 -3,1.7245 -3,1.7246 -2,3.956 -2,3.9561 -0.9904,0.4134 -0.9904,0.4134 -2.8848,2.8848 -2.8848,2.8848 0.5635,4.2018 0.5634,4.2017 3.0775,2.75 3.0776,2.75 h 1.9842 1.9842 l 0.1185,3.25 0.1185,3.25 -0.1829,1.3393 -0.1828,1.3394 9.5643,9.8565 9.5644,9.8565 v 0.9014 0.9013 l 2.25,1.0851 2.25,1.0851 1.8269,0.068 1.8269,0.068 2.9231,-2.9231 z m -7.4385,-5.5769 -0.5756,-1.5 h 1.9686 1.9686 v 1.5 1.5 h -1.393 -1.393 z m -12.4101,-10.7697 -6.2283,-6.2841 v -3.3 -3.3 l 3.0129,-3.0129 3.0128,-3.0129 1.0722,-2.0033 1.0722,-2.0034 -0.6592,-2.6568 -0.6592,-2.6569 -2.1001,-2.25 -2.1002,-2.25 h -1.3257 -1.3257 l 0.032,-1.7499 0.032,-1.75 1.3284,-1.75 1.3285,-1.75 h 1.5807 1.5808 l 0.4888,-0.7909 0.4888,-0.7909 3.7342,-0.2515 3.7343,-0.2515 0.7266,-0.449 0.7265,-0.4491 1.4214,2.2414 1.4214,2.2415 0.2042,20.582 0.2042,20.5821 -2.7662,1.3858 -2.7662,1.3858 -0.5217,0.2894 -0.5217,0.2893 -6.2283,-6.2842 z m -15.3441,-21.4803 -1.0663,-2.75 1.3789,-2.5 1.379,-2.5 2.1018,-0.1082 2.1018,-0.1081 -1.4396,3.4455 -1.4397,3.4456 1.0755,1.2958 1.0754,1.2958 -1.6073,0.6168 -1.6073,0.6168 h -0.4429 -0.443 z m 8.9072,0.2081 -0.4467,-0.4467 0.4449,-3.0309 0.4448,-3.0309 1.3828,1.1477 1.3828,1.1476 v 0.949 0.949 l -1.381,1.3809 -1.3809,1.381 z m -1.7914,-11.9581 v -0.5 h 0.5 0.5 v 0.5 0.5 h -0.5 -0.5 z m 25,-43.05899 v -2.4409 h 0.8102 0.8101 l 3.1899,-3.1187 3.1898,-3.1187 v -1.9582 -1.9583 l -2.9231,-2.9231 -2.9231,-2.923 h -2.988 -2.988 l -2.5889,3.0767 -2.5889,3.0767 v 0.9631 0.9631 l 2.0203,3.9602 2.0203,3.9602 h 0.9797 0.9797 v 2.3333 2.3333 l 0.6395,0.6395 0.6395,0.6395 0.8605,-0.5318 0.8605,-0.5319 z m -0.7587,-7.8819 0.7413,-0.875 -1.1137,-1.342 -1.1138,-1.342 h 1.1225 1.1224 l 0.015,1.25 0.015,1.25 0.9694,-1.5 0.9694,-1.5 0.015,1.1275 0.015,1.1276 -1.75,1.3394 -1.75,1.3395 0.7413,-0.875 z m -3.2413,-2.559 v -1.3334 l 0.6667,0.6667 0.6666,0.6667 -0.6666,0.6666 -0.6667,0.6667 z m -69.6349,-6.0726 2.6349,-2.0726 v -2.6992 -2.6992 l 4.5,-4.9015 4.5,-4.9014 v -0.8268 -0.8267 l 3.25,-0.032 3.25,-0.032 1.95,-1.4747 1.95,-1.4747 v -3.4438 -3.4438 l -1.855,-2.0497 -1.855,-2.0497 h -2.7342 -2.7342 l -2.2788,1.8452 -2.2788,1.8452 0.1766,4.6678 0.1765,4.6679 -4.1707,4.5247 -4.1708,4.5248 -1.0378,-1.0378 -1.0378,-1.0378 -2.05,0.032 -2.05,0.032 -1.5867,1.2181 -1.5866,1.2182 -1.1634,2.1843 -1.1633,2.1843 v 1.6112 1.6112 l 2.4545,2.4545 2.4546,2.4545 h 1.9106 1.9106 z m -5.1359,-5.1149 0.3958,-1.1875 1.1882,-0.3961 1.1882,-0.3961 -0.6077,1.5836 -0.6077,1.5836 h -0.9763 -0.9764 z m 19.4375,-19.4792 -0.6667,-0.6667 v -1.3333 -1.3333 h 0.9379 0.9378 l -0.1507,2 -0.1506,2 h -0.1205 -0.1206 z m -14.0667,1.2667 3.4,-3.4 v -2.4652 -2.4651 l -2.0726,-2.6349 -2.0726,-2.6348 h -3.2049 -3.2049 l -2.2856,1.6009 -2.2856,1.6009 -0.9304,2.4469 -0.9303,2.4469 1.3998,3.3501 1.3997,3.35 1.8437,1.0717 1.8437,1.0717 1.85,0.03 1.85,0.03 3.4,-3.4 z m -7.2384,-4.1 -0.5756,-1.5 0.604,-1.574 0.604,-1.5739 1.753,0.3403 1.753,0.3403 0.034,1.9836 0.034,1.9837 -1.0345,0.7346 -1.0345,0.7347 -0.7814,0.015 -0.7814,0.015 -0.5756,-1.5 z m 71.1839,-36.9546 2.4545,-2.4545 v -2.1112 -2.1112 l -1.117,-2.1843 -1.1171,-2.1842 -2.1329,-1.6983 -2.133,-1.6983 0.3645,-34.2934 0.3645,-34.2935 2.3855,-2.835 2.3855,-2.835 v -3.8843 -3.8843 l -2.1886,-2.039 -2.1885,-2.0389 h -3.089 -3.0889 l -2.2856,1.6009 -2.2856,1.6009 -0.9122,2.3991 -0.9121,2.3991 0.942,2.4777 0.9421,2.4777 2.5332,2.2026 2.5332,2.2026 v 34.2428 34.2427 l -3,3 -3,3 v 2.9421 2.942 l 2.0726,2.6349 2.0726,2.6349 h 3.9728 3.9729 z m -9.051,-3.5544 -0.6236,-1.0089 0.6319,-1.9911 0.632,-1.991 h 2.464 2.464 l 0.5805,1.5127 0.5805,1.5127 -1.2344,1.4873 -1.2343,1.4873 h -1.8185 -1.8186 z m -0.8188,-87.3938 -0.5383,-1.4028 1.2867,-1.7597 1.2867,-1.7597 1.708,0.6554 1.708,0.6554 -0.5696,0.9217 -0.5697,0.9216 1.1833,0.3945 1.1833,0.3944 -0.7361,1.191 -0.736,1.191 h -2.334 -2.334 z m 3.3243,-1.0972 v -0.5 h -0.5 -0.5 v 0.5 0.5 h 0.5 0.5 z m -56.4545,81.0454 2.4545,-2.4545 v -3.908 -3.9079 l -3,-3.775 -3,-3.7751 v -5.4612 -5.4613 l 3,-2.8024 3,-2.8025 v -3.6442 -3.6443 l -2.5,-2.5 -2.5,-2.5 v -15.4859 -15.4859 l 1.537,-0.5898 1.537,-0.5898 1.5264,-2.9518 1.5264,-2.9518 -0.6402,-2.9148 -0.6402,-2.9149 -2.558,-2.0122 -2.5581,-2.0121 h -1.9148 -1.9148 l -2.8419,1.4696 -2.842,1.4696 -1.0694,3.0678 -1.0694,3.0678 0.9163,2.4103 0.9164,2.4103 2.5447,1.6673 2.5446,1.6673 v 15.4495 15.4496 l -3,2.5243 -3,2.5243 0.032,3.1611 0.032,3.1612 1.2182,1.5866 1.2182,1.5867 2.25,1.1985 2.25,1.1985 v 6.6089 6.6088 l -3.7,3.1984 -3.7,3.1984 v 3.7872 3.7871 l 2.7558,2.3704 2.7557,2.3705 h 2.9897 2.9897 l 2.4546,-2.4546 z m -8.9178,-5.0731 -0.6277,-1.6359 v -0.383 -0.3831 l 1.9276,-1.0316 1.9275,-1.0316 1.6253,0.6237 1.6253,0.6237 -0.3028,2.1227 -0.3029,2.1228 -2.6223,0.3041 -2.6222,0.304 z m 0.7792,-31.8543 -0.5841,-1.5223 0.6476,-1.0479 0.6476,-1.0478 h 2.5106 2.5105 l -0.3195,2.25 -0.3196,2.25 -2.2545,0.3201 -2.2544,0.3201 z m 0.6054,-46.6104 -1.2091,-0.7473 0.357,-1.8802 0.3569,-1.8801 2.7415,-0.3165 2.7414,-0.3164 v 2.4498 2.4498 l -1.8893,0.4941 -1.8893,0.494 z m 29.0646,-0.9307 2.9231,-2.9231 v -3.1224 -3.1224 l -2.4545,-2.4545 -2.4546,-2.4545 h -3.0909 -3.0909 l -2.4546,2.4545 -2.4545,2.4545 v 2.4106 2.4106 l 2.1381,2.7182 2.1381,2.7182 2.1119,0.8533 2.1119,0.8533 0.8269,0.063 0.8269,0.063 2.9231,-2.9231 z m -5.5336,-5.4216 -1.839,-1.3447 2.0772,-0.5433 2.0773,-0.5432 -0.1422,1.8879 -0.1422,1.888 h -0.096 -0.096 l -1.839,-1.3447 z m 60.4047,-6.1 2.2966,-2.4446 -0.6382,-2.5427 -0.6382,-2.5427 -2.6118,-1.7114 -2.6119,-1.7114 -3.8204,2.1987 -3.8203,2.1988 h -2.962 -2.962 l -6.7125,-7.5 -6.7124,-7.5 -14.1275,0.02 -14.1274,0.02 -5.8547,3.7578 -5.8546,3.7578 -3.888,-3.888 -3.8879,-3.8879 -2.7574,0.6459 -2.7574,0.646 -2.75,2.98 -2.75,2.9801 v 2.5612 2.5611 l 2.9231,2.9231 2.9231,2.9231 h 3.1769 3.1769 l 3.5,-3.5 3.5,-3.5 h 0.7088 0.7089 l 5.4411,-3.25 5.4412,-3.25 13.0929,0.2779 13.093,0.2779 5.1864,6.4721 5.1864,6.4721 h 5.2826 5.2826 l 2.218,3 2.218,3 h 2.2957 2.2958 l 2.2966,-2.4447 z m -83.2813,-10.222 -0.6667,-0.6667 v -1.8492 -1.8492 l 3.076,0.2344 3.076,0.2344 0.4273,0.6912 0.4272,0.6913 -0.6102,1.5902 -0.6103,1.5903 h -2.2263 -2.2264 z m 338.3439,492.17924 -1.2344,-1.4872 0.5805,-1.5128 0.5805,-1.5127 h 2.5314 2.5314 v 1.8 1.8 l -1.2,1.2 -1.2,1.2 h -0.6776 -0.6775 z m -7.0106,-19.0127 v -0.5 h 0.5 0.5 v 0.5 0.5 h -0.5 -0.5 z m 1.0295,-39.25 -1.3723,-3.75 0.2343,-4.0444 0.2343,-4.0444 -2.1864,-5.9556 -2.1864,-5.9556 -0.8765,-0.95 -0.8765,-0.95 v -0.8 -0.8 h 7.5 7.5 v 3.7124 3.7125 l -2.5317,2.0375 -2.5318,2.0376 -0.5871,3.6765 -0.5872,3.6766 2.5734,2.5734 2.5735,2.5735 h 3.8905 3.8904 l 1.855,-2.0497 1.855,-2.0498 v -3.6016 -3.6016 l -3.2,-2.6715 -3.2,-2.6715 v -3.6771 -3.6772 h 5.5 5.5 v 15.5 15.5 h -10.7991 -10.7991 z m -24.3911,-6.75 -0.5756,-1.5 0.5756,-1.5 0.5756,-1.5 h 2.893 2.893 l -0.032,1.25 -0.032,1.25 -1.3284,1.75 -1.3285,1.75 h -1.5328 -1.5327 l -0.5756,-1.5 z m -114.6384,-0.441 v -0.941 l 0.9885,-0.6109 0.9886,-0.611 -0.5955,1.552 -0.5956,1.5519 h -0.393 -0.393 z m 92.3627,-0.5561 -0.6283,-1.6373 1.0266,-1.0266 1.0266,-1.0266 1.8562,0.3575 1.8562,0.3575 v 1.9863 1.9863 l -2.2545,0.3201 -2.2544,0.3202 z m 4.6373,0 v -0.5 h -0.5 -0.5 v 0.5 0.5 h 0.5 0.5 z m -94,0 v -0.5 h 0.5 0.5 v 0.5 0.5 h -0.5 -0.5 z m 145,-1.559 v -1.059 l 1,0.618 1,0.618 v 0.441 0.441 h -1 -1 z m 2,-2.4096 v -1.4686 l -1.75,0.5441 -1.75,0.5441 1.7579,-1.1296 1.7579,-1.1296 0.9921,0.6131 0.9921,0.6131 v 1.441 1.441 h -1 -1 z m -113.5539,-4.6185 -0.6718,-1.0872 1.0456,-1.0456 1.0457,-1.0457 1.6798,0.6447 1.6798,0.6446 -1.235,1.4881 -1.2351,1.4882 h -0.8185 -0.8186 z m 1.5539,-0.4158 v -0.5 h -0.5 -0.5 v 0.5 0.5 h 0.5 0.5 z m -124,-2 v -0.5 h 0.5 0.5 v 0.5 0.5 h -0.5 -0.5 z m 21.4045,-2.6545 -0.7135,-1.1545 1.1545,0.7135 1.1545,0.7135 v 0.441 0.441 h -0.441 -0.441 z M 3679.8257,364.36102 v -0.5 h 0.5 0.5 v 0.5 0.5 h -0.5 -0.5 z m -23.2988,-107.13209 -0.7012,-0.7013 v -1.8333 -1.8333 h 2.5696 2.5695 l -0.3195,2.2397 -0.3196,2.2398 -1.5488,0.2948 -1.5487,0.2948 z m 19.5094,-43.906 -1.2895,-1.4619 h 1.5395 1.5394 v 1.5 1.5 l -0.25,-0.038 -0.25,-0.038 -1.2894,-1.462 z m 60.1227,-6.0413 v -1.1706 h 2.3334 2.3333 v 1.3638 1.3638 l -2.3333,-0.1932 -2.3334,-0.1931 z m -46.8333,-9.4206 0.618,-1 h 0.441 0.441 v 1 1 h -1.059 -1.059 z m 46.2356,-26.5978 -0.5978,-0.5978 0.5381,-1.4022 0.5381,-1.4022 h 1.393 1.393 v 2 2 h -1.3333 -1.3334 z m -49.21,-8.3607 -0.6524,-1.0557 1.6065,-0.6164 1.6066,-0.6165 0.481,0.481 0.481,0.4811 -1.4351,1.191 -1.4351,1.1911 z m 43.6466,-48.6971 0.3508,-1.8215 1.7385,-0.3348 1.7385,-0.3348 v 1.0381 1.0382 l -2.0893,1.1181 -2.0893,1.1182 z m -70.5893,-6.2102 -0.7832,-1.2673 0.6002,-0.6001 0.6001,-0.6002 0.6042,0.6042 0.6041,0.6042 -0.421,1.2632 -0.4211,1.2632 z"
       id="path5380" />
  </g>
</svg>
